<svg xmlns="http://www.w3.org/2000/svg" width="54" height="54" viewBox="0 0 54 54">
  <g id="Group_10043" data-name="Group 10043" transform="translate(8611 5057)">
    <rect id="Rectangle" width="54" height="54" rx="27" transform="translate(-8611 -5057)" fill="#15215e"/>
    <g id="Group_10023" data-name="Group 10023" transform="translate(-10469 -7558)">
      <g id="Group_9965" data-name="Group 9965" transform="translate(1822.478 2465.52)">
        <path id="Path_1" data-name="Path 1" d="M70.52,82.48a12,12,0,0,0,12-12v-16a12,12,0,0,0-12-12h-16a12,12,0,0,0-12,12v16a12,12,0,0,0,12,12Z" transform="translate(0 0)" fill="#937126"/>
        <path id="Path_2" data-name="Path 2" d="M84.46,96.167A11.312,11.312,0,0,0,95.744,84.833V69.708A11.308,11.308,0,0,0,84.46,58.374H69.4A11.313,11.313,0,0,0,58.112,69.708V84.833A11.317,11.317,0,0,0,69.4,96.167Z" transform="translate(-14.432 -14.713)" fill="#15215e"/>
      </g>
      <g id="Group_9966" data-name="Group 9966" transform="translate(29.974 1.369)">
        <path id="Path_3" data-name="Path 3" d="M117.725,145.876s-2.535,0-2.527,0a14.161,14.161,0,0,1,8.867,9.15H110.172v-6.134h3.115v3.022h5.46a12.133,12.133,0,0,0-8.575-3.671v-5.479h7.553Z" transform="translate(1729.854 2372.712)" fill="#fff"/>
        <path id="Path_4" data-name="Path 4" d="M305.616,134.865a14.258,14.258,0,0,0-8.905,9.154h9.956v-3.112h-4.625a10.719,10.719,0,0,1,5.422-3.28v6.393h3.157V130.874h-3.157v.883h-4.4v3.112Z" transform="translate(1559.268 2383.716)" fill="#fff"/>
        <path id="Path_5" data-name="Path 5" d="M220.312,94.382h5.729v7.32a14.08,14.08,0,0,1,3.063-2.494V91.364H217.247V99.2a14.474,14.474,0,0,1,3.061,2.478Z" transform="translate(1631.777 2420.268)" fill="#fff"/>
        <path id="Path_6" data-name="Path 6" d="M110.172,316.379h11.952a.269.269,0,0,1,0,.537H110.172v1.231h10.963a1.135,1.135,0,0,1,1.252,1.307v9.787h1.4V317.078a1.883,1.883,0,0,0-1.4-1.934H110.172Z" transform="translate(1729.854 2213.201)" fill="#937126"/>
        <path id="Path_7" data-name="Path 7" d="M110.172,364.111h10a.266.266,0,0,1,0,.531h-10v1.247h9.009a1.138,1.138,0,0,1,1.253,1.31v6.221h1.4v-8.877c0-1.078.17-1.675-1.23-1.675H110.172Z" transform="translate(1729.854 2169.022)" fill="#937126"/>
        <path id="Path_8" data-name="Path 8" d="M110.172,411.94H118.2a.267.267,0,1,1,0,.534h-8.029v1.249h7.065a1.139,1.139,0,0,1,1.255,1.309v2.67h1.4v-5.328c0-1.075.168-1.67-1.23-1.67h-8.488Z" transform="translate(1729.854 2124.74)" fill="#937126"/>
        <path id="Path_9" data-name="Path 9" d="M314.3,315.144H302.084a1.883,1.883,0,0,0-1.4,1.934v12.163h1.4v-9.787a1.139,1.139,0,0,1,1.254-1.307H314.3v-1.231H302.351a.269.269,0,0,1,0-.537H314.3Z" transform="translate(1555.586 2213.201)" fill="#937126"/>
        <path id="Path_10" data-name="Path 10" d="M338.559,362.868H328.126c-1.393,0-1.23.6-1.23,1.675v8.877h1.4V367.2a1.139,1.139,0,0,1,1.255-1.31h9.009v-1.247h-10a.266.266,0,0,1,0-.531h10Z" transform="translate(1531.331 2169.022)" fill="#937126"/>
        <path id="Path_11" data-name="Path 11" d="M362.785,410.7H354.3c-1.4,0-1.233.6-1.233,1.67V417.7h1.4v-2.67a1.138,1.138,0,0,1,1.255-1.309h7.065v-1.249h-8.029a.267.267,0,1,1,0-.534h8.029Z" transform="translate(1507.105 2124.74)" fill="#937126"/>
      </g>
    </g>
  </g>
</svg>
