<svg xmlns="http://www.w3.org/2000/svg" width="54" height="54" viewBox="0 0 54 54">
  <g id="Group_10026" data-name="Group 10026" transform="translate(9217 5094)">
    <circle id="Ellipse_62" data-name="Ellipse 62" cx="27" cy="27" r="27" transform="translate(-9217 -5094)" fill="#6d6060"/>
    <g id="bay" transform="translate(-9203.01 -5080.2)">
      <path id="Path_8526" data-name="Path 8526" d="M35.836,10.61a10.516,10.516,0,0,0,1.616,2.577c.245-.45.43-.921.634-1.391A28.452,28.452,0,0,0,39.6,5.312,37.489,37.489,0,0,0,39.928.3a13.234,13.234,0,0,0-5.564,1.391.622.622,0,0,0-.143.1c-.041.327,0,.675-.02,1A20.186,20.186,0,0,0,35.836,10.61Z" transform="translate(-27.196 -0.08)" fill="#fbd633"/>
      <path id="Path_8527" data-name="Path 8527" d="M67.091,10.428a15.683,15.683,0,0,0,1.064,2.659,11.494,11.494,0,0,0,1.268-1.861A17.666,17.666,0,0,0,71.3,4.618a22.98,22.98,0,0,0,.1-2.9,11.992,11.992,0,0,0-1.371-.655A13.2,13.2,0,0,0,65.679.2a24,24,0,0,0,.082,2.434A34.727,34.727,0,0,0,67.091,10.428Z" transform="translate(-52.232 0)" fill="#fbd633"/>
      <path id="Path_8528" data-name="Path 8528" d="M3.854,19.035a14.223,14.223,0,0,0,1.964-4.828A22.334,22.334,0,0,0,6.349,9.4a1.3,1.3,0,0,0-.286.164,13.261,13.261,0,0,0-4.132,4.193A13.041,13.041,0,0,0,.11,22.164,8.594,8.594,0,0,0,3.854,19.035Z" transform="translate(0 -7.318)" fill="#fbd633"/>
      <path id="Path_8529" data-name="Path 8529" d="M101.807,14.473a13,13,0,0,0-3.887-4.48A8.8,8.8,0,0,0,97,9.4a22.689,22.689,0,0,0,.348,3.887,15.208,15.208,0,0,0,2.025,5.544,8.408,8.408,0,0,0,3.866,3.334A13.045,13.045,0,0,0,101.807,14.473Z" transform="translate(-77.15 -7.318)" fill="#fbd633"/>
      <path id="Path_8530" data-name="Path 8530" d="M12.266,57.957a2.412,2.412,0,0,0-.368-.43,10.9,10.9,0,0,1-1.391-2.087A12.8,12.8,0,0,1,9.771,53.6a2.141,2.141,0,0,0-.245.593A10.645,10.645,0,0,1,7.95,57.118,9.29,9.29,0,0,1,3.9,60.207a1.728,1.728,0,0,0,.1.348,12.8,12.8,0,0,0,1.6,2.884,9.46,9.46,0,0,0,.818.982,2.829,2.829,0,0,0,.552-.286,15.363,15.363,0,0,0,4.7-5.094A5.586,5.586,0,0,0,12.266,57.957Z" transform="translate(-3.094 -42.477)" fill="#fbd633"/>
      <path id="Path_8531" data-name="Path 8531" d="M39.5,54.355a1.732,1.732,0,0,0-.184-.655c-.143.184-.123.45-.184.655a32.305,32.305,0,0,1-1.964,6.464A19.346,19.346,0,0,1,33.02,67.18c-.082.1.1.143.164.184A13.366,13.366,0,0,0,39.2,68.878a12.908,12.908,0,0,0,6.444-1.636,19.952,19.952,0,0,1-4.214-6.464A36.325,36.325,0,0,1,39.5,54.355Z" transform="translate(-26.241 -42.556)" fill="#fbd633"/>
      <path id="Path_8532" data-name="Path 8532" d="M85.888,54.252a1.849,1.849,0,0,0-.225-.552,3.859,3.859,0,0,0-.266.675,10.847,10.847,0,0,1-2.189,3.6c-.1.082-.02.184.02.266a19.365,19.365,0,0,0,1.452,2.332,15.064,15.064,0,0,0,3.784,3.682,1.745,1.745,0,0,0,.511.266,2.063,2.063,0,0,0,.348-.389,13.219,13.219,0,0,0,1.739-2.741,7.028,7.028,0,0,0,.43-1.084A8.242,8.242,0,0,1,89.1,58.916,10.715,10.715,0,0,1,85.888,54.252Z" transform="translate(-66.14 -42.556)" fill="#fbd633"/>
    </g>
  </g>
</svg>
