<svg xmlns="http://www.w3.org/2000/svg" width="54" height="54" viewBox="0 0 54 54">
  <g id="Group_10031" data-name="Group 10031" transform="translate(8977 5140)">
    <circle id="Ellipse_63" data-name="Ellipse 63" cx="27" cy="27" r="27" transform="translate(-8977 -5140)" fill="#fff"/>
    <g id="Group_10030" data-name="Group 10030" transform="translate(-88 62)">
      <path id="Path_8518" data-name="Path 8518" d="M7.678,60.53a3.21,3.21,0,1,1-2.519-5.2,3.226,3.226,0,0,1,2.417,1.1l1.2-1.523a5.139,5.139,0,1,0,0,7.272Z" transform="translate(-8875 -5231.408)" fill="#092869"/>
      <rect id="Rectangle_6278" data-name="Rectangle 6278" width="2.173" height="9.973" transform="translate(-8865.189 -5177.805)" fill="#092869"/>
      <rect id="Rectangle_6279" data-name="Rectangle 6279" width="2.173" height="9.973" transform="translate(-8853.347 -5177.764)" fill="#092869"/>
      <path id="Path_8519" data-name="Path 8519" d="M71.486,52.522a2.353,2.353,0,0,1-2.356-2.5h-.02V44.336H67.2V42.508h1.909v-1.93l1.93-1.178-.061,1.483v1.625h1.95v1.828h-1.95v5.058a.762.762,0,0,0-.02.223.833.833,0,0,0,.02.223v.122a1.276,1.276,0,0,0,.772.975,1.414,1.414,0,0,0,.508.1,1.338,1.338,0,0,0,1.016-.467,1.233,1.233,0,0,0,.142-.2h0C73.436,50.308,73.477,52.522,71.486,52.522Z" transform="translate(-8928.55 -5220.251)" fill="#092869"/>
      <path id="Path_8520" data-name="Path 8520" d="M85.82,88.5v.427a.761.761,0,0,1-.02-.223A.691.691,0,0,1,85.82,88.5Z" transform="translate(-8943.372 -5259.378)" fill="#fff"/>
      <path id="Path_8521" data-name="Path 8521" d="M49.836,23.9A10.6,10.6,0,0,0,41,28.612h3.067a8.245,8.245,0,0,1,5.748-2.356,8.158,8.158,0,0,1,5.748,2.356h3.108A10.676,10.676,0,0,0,49.836,23.9Z" transform="translate(-8907.672 -5207.9)" fill="red"/>
    </g>
  </g>
</svg>
