<svg xmlns="http://www.w3.org/2000/svg" width="54" height="54" viewBox="0 0 54 54">
  <g id="Group_10032" data-name="Group 10032" transform="translate(9017 5029)">
    <circle id="Ellipse_63" data-name="Ellipse 63" cx="27" cy="27" r="27" transform="translate(-9017 -5029)" fill="#ea9a40"/>
    <g id="ghb" transform="translate(-9010.39 -5017.916)">
      <path id="Path_8544" data-name="Path 8544" d="M6.441,22.464c0-1.489.024-2.953,0-4.442,0-.488.171-.61.611-.61.83.024,1.661,0,2.491.024.489.024.611-.171.611-.635q-.037-1.391,0-2.782c0-.415-.122-.61-.562-.586-.879.024-1.734,0-2.614.024-.391,0-.513-.122-.513-.513.024-1.733.024-3.466,0-5.223a.864.864,0,0,1,.513-.781c3.591-2.1,7.206-4.174,10.8-6.273a1.364,1.364,0,0,0,.2-.122c1.05-.976,1.954-.708,3.1.049C25.3,3.353,29.622,6.014,33.9,8.674a1.091,1.091,0,0,1,.586,1.05c-.024,2.636-.024,5.3,0,7.932,0,.488-.147.659-.635.635-.879-.024-1.734,0-2.614-.024-.391,0-.586.1-.562.537.024.976.024,1.928,0,2.9,0,.415.147.561.562.561.879-.024,1.734,0,2.614,0,.366,0,.537.1.513.513q-.037,2.05,0,4.1c0,.464-.2.61-.586.732-3.566,1.123-7.132,2.246-10.7,3.417a2.9,2.9,0,0,1-2.125-.1c-2.736-1.1-5.471-2.148-8.207-3.222a2.409,2.409,0,0,0-.928-.171c-1.588-.024-3.175-.024-4.739,0-.562.024-.708-.2-.684-.708C6.465,25.369,6.441,23.9,6.441,22.464ZM8.639,9.87c.269-.073.489-.122.708-.2,2.711-.9,5.423-1.782,8.134-2.734a1.688,1.688,0,0,1,1.661.22c1.563,1.123,3.175,2.2,4.788,3.271a.944.944,0,0,1,.318,1.416c-.391.683-.83.83-1.466.464-.66-.391-1.295-.83-1.954-1.245-.733-.464-1.246-.317-1.783.464a1.051,1.051,0,0,0,.293,1.709C21,14.41,22.685,15.557,24.37,16.68a1.579,1.579,0,0,0,.83.244c2.174.024,4.348,0,6.522.024.464,0,.66-.1.66-.61-.024-1.9-.024-3.832,0-5.736a.8.8,0,0,0-.415-.757c-4.079-2.416-8.183-4.857-12.262-7.3a.917.917,0,0,0-1.075,0L9.4,7.966C8.42,8.479,8.346,8.674,8.639,9.87ZM25.274,23.856h-6.6c-.708,0-1.075-.439-1.075-1.2.024-.708.293-.976,1.026-.976,1.05,0,2.1.024,3.151-.024.782-.024,1.148-.464,1.148-1.269a1.236,1.236,0,0,0-1.221-1.269H9.079c-.415,0-.562.122-.562.537.024,1.831.024,3.686,0,5.516,0,.439.147.586.586.586,1.392-.024,2.809-.024,4.2,0a2.409,2.409,0,0,1,.928.171c2.394.927,4.788,1.855,7.157,2.807a1.893,1.893,0,0,0,1.368.049c2.98-1,5.984-1.977,8.989-2.953.537-.171.806-.415.708-1a.924.924,0,0,1,0-.366c.049-.464-.122-.61-.586-.61C29.646,23.88,27.448,23.856,25.274,23.856Z" transform="translate(0)" fill="#fff"/>
    </g>
  </g>
</svg>
