<svg xmlns="http://www.w3.org/2000/svg" width="54" height="54" viewBox="0 0 54 54">
  <g id="Group_10046" data-name="Group 10046" transform="translate(8633 4850)">
    <g id="Rectangle" transform="translate(-8633 -4850)" fill="#244014" stroke="#233e13" stroke-miterlimit="10" stroke-width="1">
      <rect width="54" height="54" rx="27" stroke="none"/>
      <rect x="0.5" y="0.5" width="53" height="53" rx="26.5" fill="none"/>
    </g>
    <g id="Group_9971" data-name="Group 9971" transform="translate(-10564 -6846)">
      <rect id="Rectangle_6295" data-name="Rectangle 6295" width="25" height="32" transform="translate(1946 2008)" fill="#f2b033"/>
      <path id="ibank" d="M36.722,7A20.976,20.976,0,0,0,18.922.172a20.7,20.7,0,0,0-11.8,5.109,21.531,21.531,0,0,0-6.032,9A21.183,21.183,0,0,0,6.4,36.333,21.154,21.154,0,0,0,31.217,39.7,21.108,21.108,0,0,0,41.733,16.819,21.342,21.342,0,0,0,36.722,7ZM21.493,36.4a8.172,8.172,0,0,1-6.527-.066,5.866,5.866,0,0,1-3-3.89,12.3,12.3,0,0,1,.593-7.054,23.441,23.441,0,0,1,1.319-2.934c-1.78,1.78-3.527,3.593-5.274,5.406a92.83,92.83,0,0,1,8.5-10.186c1.648-1.582,3.3-3.132,5.011-4.615a15.526,15.526,0,0,1,1.846-1.45A32.1,32.1,0,0,0,20.9,16.423a34.452,34.452,0,0,0-2.8,6.626c-.659,2.34-1.055,4.912-.165,7.252A4.517,4.517,0,0,0,20.8,33.169a8.767,8.767,0,0,0,7.351-1.615A17.743,17.743,0,0,1,21.493,36.4Zm6.988-24.756c-.527-.264-1.022-.494-1.549-.758-.494.3-1.022.56-1.516.824.1-.56.165-1.121.264-1.714L24.394,8.808c.56-.1,1.121-.2,1.714-.3.231-.527.494-1.055.725-1.582.264.494.527,1.022.791,1.549.56.066,1.154.165,1.747.231-.429.4-.791.824-1.22,1.253C28.284,10.489,28.383,11.05,28.481,11.643Z" transform="translate(1937.049 2001.941)" fill="#244014"/>
    </g>
  </g>
</svg>
