<svg xmlns="http://www.w3.org/2000/svg" width="54" height="54" viewBox="0 0 54 54">
  <g id="Group_10050" data-name="Group 10050" transform="translate(8633 4661)">
    <g id="Rectangle" transform="translate(-8633 -4661)" fill="#fff" stroke="#fff" stroke-miterlimit="10" stroke-width="1">
      <rect width="54" height="54" rx="27" stroke="none"/>
      <rect x="0.5" y="0.5" width="53" height="53" rx="26.5" fill="none"/>
    </g>
    <path id="icbc" d="M16.339,0h1.634A17.421,17.421,0,0,1,29.332,5.035a16.826,16.826,0,0,1,2.545,20.591,17.1,17.1,0,0,1-8.76,7.235,17.4,17.4,0,0,1-11.814.053,17.074,17.074,0,0,1-9.081-7.632A16.831,16.831,0,0,1,.159,14.549,17.023,17.023,0,0,1,6.427,3.71,17.438,17.438,0,0,1,16.339,0ZM15.214,2.756a14.521,14.521,0,0,0-10.9,7.526A14.169,14.169,0,0,0,3.159,20.723a14.574,14.574,0,0,0,26.306,3.79A14.208,14.208,0,0,0,25.8,5.486a14.536,14.536,0,0,0-10.581-2.73ZM7.954,15.662H13.2v2.6H7.954V26.1h8.572V23.479h-5.92V20.856h5.251V13.038H10.606v-2.6h5.92V7.818H7.954c0,2.624,0,5.221,0,7.844Zm9.885-7.818v2.6h5.92v2.624H18.509v7.844H23.76v2.6h-5.92v2.624h8.546V18.312H21.134V15.688h5.251V7.871c-2.84-.027-5.706-.027-8.546-.027Z" transform="translate(-8622.997 -4651)" fill="#ae3129"/>
  </g>
</svg>
