<svg xmlns="http://www.w3.org/2000/svg" width="54" height="54" viewBox="0 0 54 54">
  <g id="Group_10053" data-name="Group 10053" transform="translate(-33 -628)">
    <g id="Rectangle" transform="translate(33 628)" fill="#3a91c0" stroke="#3a91c0" stroke-miterlimit="10" stroke-width="1">
      <rect width="54" height="54" rx="27" stroke="none"/>
      <rect x="0.5" y="0.5" width="53" height="53" rx="26.5" fill="none"/>
    </g>
    <g id="kk" transform="translate(45 640)">
      <path id="Path_8549" data-name="Path 8549" d="M17.685,0A17.685,17.685,0,1,0,35.371,17.685,17.7,17.7,0,0,0,17.685,0ZM13.678,10.252a1.242,1.242,0,0,1,.636-.857c2.957-1.409,5.969-2.763,8.926-4.145a2.763,2.763,0,0,1,3.205.47C27.523,6.743,28.573,7.793,29.6,8.9c.221.221.249.663.359.995-.3.083-.608.166-.94.249a7.809,7.809,0,0,0-1.8.47c-4.09,1.934-8.179,3.952-12.3,5.914-.359.166-.691.3-1.271.58C13.651,14.646,13.623,12.463,13.678,10.252ZM27.8,23.516c-1.382.055-2.763.055-4.117,0a1.253,1.253,0,0,1-.884-.608c-1.271-2.432-2.487-4.891-3.786-7.489,2.045-.995,3.952-1.907,5.969-2.9,1.492,2.874,3.012,5.637,4.394,8.483A1.735,1.735,0,0,1,27.8,23.516ZM7.9,6.521a12.5,12.5,0,0,1,5.112-2.846V23.461H6.549V22.245c0-4.256.028-8.483,0-12.739A3.607,3.607,0,0,1,7.9,6.521Zm14.756,23.93H17.713c-1.6,0-3.233-.111-4.836.028a6.487,6.487,0,0,1-5.72-2.57Q6,26.5,4.919,25.008a1.1,1.1,0,0,1-.083-.884c.028-.111.47-.138.718-.111.691.055,1.382.221,2.1.221,6.632.028,13.292.028,19.924,0a22.054,22.054,0,0,0,2.321-.249c.221-.028.58,0,.636.111a1.145,1.145,0,0,1,.028.8A9.453,9.453,0,0,1,22.659,30.452Z" transform="translate(-3 -3)" fill="#fff"/>
    </g>
  </g>
</svg>
