<svg xmlns="http://www.w3.org/2000/svg" width="54" height="54" viewBox="0 0 54 54">
  <g id="Group_2" data-name="Group 2" transform="translate(9455 4889)">
    <circle id="Ellipse_1" data-name="Ellipse 1" cx="27" cy="27" r="27" transform="translate(-9455 -4889)" fill="#e3e3e3"/>
    <g id="money-bag" transform="translate(-9439.018 -4873)">
      <path id="Path" d="M14.759,5.569a1.049,1.049,0,0,1-.225-1.543c1.1-1.355,2.914-3.844,1.55-4.016-.941-.118-3.021.863-5.1.863S6.822-.108,5.882.01c-1.364.171.45,2.661,1.55,4.016a1.049,1.049,0,0,1-.225,1.543C4.933,7.264-.559,11.875.046,16.453.808,22.21,10.983,22,10.983,22s10.175.211,10.936-5.546C22.525,11.875,17.032,7.264,14.759,5.569Z" transform="translate(0.017 0)" fill="#ff4c4c"/>
      <path id="Path-2" data-name="Path" d="M4.965,5.569A1.049,1.049,0,0,1,4.74,4.026C5.84,2.671,7.654.181,6.29.01a2.287,2.287,0,0,0-.631.034c-.476,1.036-2.49,2.987-3.3,3.982a1.049,1.049,0,0,0,.225,1.543c2.273,1.695,7.766,6.306,7.16,10.885C9.148,20.988,2.708,21.82,0,21.968c.73.04,1.189.031,1.189.031s10.175.211,10.936-5.546C12.731,11.874,7.238,7.264,4.965,5.569Z" transform="translate(9.811 0)" fill="#f33939"/>
      <g id="Group" transform="translate(5.197 4.383)">
        <ellipse id="Oval" cx="5.792" cy="4.932" rx="5.792" ry="4.932" transform="translate(0.011 4.425)" fill="#ffb125"/>
        <path id="Path-3" data-name="Path" d="M8.953,1.37H.8A.752.752,0,0,1,0,.685H0A.752.752,0,0,1,.8,0H8.953a.752.752,0,0,1,.8.685h0A.752.752,0,0,1,8.953,1.37Z" transform="translate(0.924 0.023)" fill="#ffb125"/>
      </g>
      <g id="Group-2" data-name="Group" transform="translate(6.106 4.77)">
        <path id="Path-4" data-name="Path" d="M8.953.383H.8A.825.825,0,0,1,.083,0,.6.6,0,0,0,0,.3.752.752,0,0,0,.8.986H8.953A.752.752,0,0,0,9.757.3.6.6,0,0,0,9.674,0,.826.826,0,0,1,8.953.383Z" transform="translate(0.016 0.019)" fill="#ff901d"/>
        <path id="Path-5" data-name="Path" d="M8.191,6.975A4.433,4.433,0,0,0,8.191,0L0,6.975A6.527,6.527,0,0,0,8.191,6.975Z" transform="translate(0.799 5.483)" fill="#ff901d"/>
      </g>
      <path id="Shape" d="M1.89,6.169v-.24C.763,5.913,0,5.395,0,5.015a.475.475,0,0,1,.419-.441c.3,0,.544.542,1.472.6V3.359C1.073,3.111.164,2.832.164,1.842S1.027.48,1.89.4V.178C1.89.086,2,0,2.154,0c.137,0,.273.086.273.178V.387c.618.015,1.49.178,1.49.557a.446.446,0,0,1-.4.441A5.71,5.71,0,0,0,2.426,1.1V2.67c.791.248,1.654.588,1.654,1.641,0,.952-.672,1.478-1.654,1.594v.264c0,.093-.136.178-.273.178C2,6.347,1.89,6.261,1.89,6.169Z" transform="translate(8.96 10.728)" fill="#dd7219"/>
    </g>
  </g>
</svg>
