<svg xmlns="http://www.w3.org/2000/svg" width="54" height="54" viewBox="0 0 54 54">
  <g id="Group_10045" data-name="Group 10045" transform="translate(8600 4921)">
    <rect id="Rectangle" width="54" height="54" rx="27" transform="translate(-8600 -4921)" fill="#013c7f"/>
    <g id="mb" transform="translate(-8593 -4944.8)">
      <path id="Path_8552" data-name="Path 8552" d="M9.7,74.075a62.2,62.2,0,0,1,36.457,1.387A136.716,136.716,0,0,0,9.7,74.075Z" transform="translate(-6.711 -18.828)" fill="#d13837"/>
      <path id="Path_8553" data-name="Path 8553" d="M0,51.58H.894l.493-5.116,2.28,5.177h.185l2.311-5.27.462,5.239H8.66l-.709-6.78H5.886L4.407,48.436,2.8,44.8H.092v.247s.647-.092.555.77Z" transform="translate(0 0)" fill="#fff"/>
      <path id="Path_8554" data-name="Path 8554" d="M30,46.9v.216s.586-.062.586.77v5.239h1.787V46.9Z" transform="translate(-20.755 -1.453)" fill="#fff"/>
      <path id="Path_8555" data-name="Path 8555" d="M40.485,46.8v1.294h.185s-.062-.524.647-.524h2.065L40.3,52.809v.216h5.763v-.8H42.735l3.143-5.208V46.8Z" transform="translate(-27.881 -1.384)" fill="#fff"/>
      <path id="Path_8556" data-name="Path 8556" d="M59.231,46.8H61.6v4.438a1.067,1.067,0,0,0,1.2,1.2h1.079V47.786a.544.544,0,0,0-.555-.678v-.277h2.4v2.65h2.28V47.6s.092-.586-.586-.586V46.8H69.8v6.163H67.952a7.916,7.916,0,0,0,.092-.955V50.19H65.61v1.972a3.014,3.014,0,0,0,.062.8s-1.757.154-2.866.154-3.082.031-3.082-2.373v-2.8s.062-.894-.524-.894V46.8Z" transform="translate(-40.956 -1.384)" fill="#fff"/>
      <path id="Path_8557" data-name="Path 8557" d="M99.236,46.4A3.43,3.43,0,0,0,95.6,49.574a3.67,3.67,0,0,0,7.273,0A3.43,3.43,0,0,0,99.236,46.4Zm0,5.732c-1.017,0-1.849-1.109-1.849-2.465s.832-2.465,1.849-2.465,1.818,1.109,1.818,2.465S100.253,52.132,99.236,52.132Z" transform="translate(-66.139 -1.107)" fill="#fff"/>
    </g>
  </g>
</svg>
