<svg xmlns="http://www.w3.org/2000/svg" width="54" height="54" viewBox="0 0 54 54">
  <g id="Group_10044" data-name="Group 10044" transform="translate(8376 4901)">
    <g id="Rectangle" transform="translate(-8376 -4901)" fill="#fff" stroke="#fff" stroke-miterlimit="10" stroke-width="1">
      <rect width="54" height="54" rx="27" stroke="none"/>
      <rect x="0.5" y="0.5" width="53" height="53" rx="26.5" fill="none"/>
    </g>
    <g id="sc" transform="translate(-8383.4 -4893)">
      <path id="Path_8564" data-name="Path 8564" d="M29.809,108.563a5.553,5.553,0,0,1-2.823.941,4.655,4.655,0,0,1-4.587-4.381l4.734-2.823,7.35,3.293-4.675,2.97Z" transform="translate(0 -72.222)" fill="#81b4d5" opacity="0.7"/>
      <path id="Path_8565" data-name="Path 8565" d="M41.386,67.01l-3.528-1.558C36.3,64.746,34.8,64.158,34.8,62.423a2.321,2.321,0,0,1,.706-1.823l7.439,3.293-1.852,1.058c-.5.323-.853.588-.853.97,0,.441.5.794,1.147,1.088Z" transform="translate(-8.754 -42.783)" fill="#aec59f" opacity="0.7"/>
      <path id="Path_8566" data-name="Path 8566" d="M45.138,8l-3.616,2.176a1.261,1.261,0,0,0-.735,1c0,.559.823.97,1.558,1.323l-4.5-2C36.523,9.908,35.2,9.262,35.2,7.644a3.051,3.051,0,0,1,.5-1.676L45.461,0a4.417,4.417,0,0,1,2.293,3.793A4.669,4.669,0,0,1,45.138,8Z" transform="translate(-9.037)" fill="#81b4d5" opacity="0.7"/>
      <path id="Path_8567" data-name="Path 8567" d="M75.05,32l-.882.5L66.7,29.2,75.374,24A4.442,4.442,0,0,1,77.7,27.793,4.645,4.645,0,0,1,75.05,32Z" transform="translate(-31.275 -16.944)" fill="#b2c6a1" opacity="0.7"/>
      <path id="Path_8568" data-name="Path 8568" d="M69.605,72.7l4.41,1.941c1.646.735,2.146,1.617,2.146,2.7a2.34,2.34,0,0,1-.853,1.676L67.9,75.728l1.264-.706c1.058-.588,1.411-.941,1.411-1.323,0-.412-.235-.676-.97-1Z" transform="translate(-32.122 -51.325)" fill="#83b4d9" opacity="0.7"/>
      <path id="Path_8569" data-name="Path 8569" d="M47.028,80.417a32.136,32.136,0,0,0-6.292-3.528L29.5,71.92c-2.823-1.264-4.7-2.94-4.7-5.763a5.616,5.616,0,0,1,3.058-5.175l.617-.382a2.364,2.364,0,0,0-.706,1.823c0,1.735,1.47,2.323,3.058,3.028l13.084,5.763c2.264.97,4.351,2.646,4.351,5.528a5.757,5.757,0,0,1-1.235,3.675Z" transform="translate(-1.694 -42.783)" fill="#68a33f"/>
      <path id="Path_8570" data-name="Path 8570" d="M46.269,41.428l-.823.529a2.34,2.34,0,0,0,.853-1.676c0-1.088-.5-1.97-2.146-2.7L30.187,31.4C27.364,30.167,25.6,28.55,25.6,25.728A6.181,6.181,0,0,1,28.922,20.2a2.829,2.829,0,0,0-.5,1.676c0,1.588,1.323,2.264,2.646,2.852l13.584,6c2.47,1.088,4.469,2.734,4.469,5.763a5.39,5.39,0,0,1-2.852,4.94Z" transform="translate(-2.259 -14.261)" fill="#2c79ac"/>
    </g>
  </g>
</svg>
