<svg xmlns="http://www.w3.org/2000/svg" width="54" height="54" viewBox="0 0 54 54">
  <g id="Group_10028" data-name="Group 10028" transform="translate(9034 5245)">
    <circle id="Ellipse_63" data-name="Ellipse 63" cx="27" cy="27" r="27" transform="translate(-9034 -5245)" fill="#e4783c"/>
    <g id="Group_9955" data-name="Group 9955" transform="translate(-10930.714 -6967.977)">
      <rect id="Rectangle_6283" data-name="Rectangle 6283" width="12.933" height="9.053" transform="translate(1911.551 1751.234)" fill="#fbfdf6"/>
      <rect id="Rectangle_6282" data-name="Rectangle 6282" width="12.933" height="10.347" transform="translate(1916.724 1746.06)" fill="#fbfdf6"/>
      <path id="Path_8525" data-name="Path 8525" d="M28.067,53.465a8.444,8.444,0,0,0-1.953-1.037c-2.332-.88-2.944-.66-4.169,1.7-.9,1.728-1.691,3.488-2.595,5.216a8.339,8.339,0,0,1-1.4,2.105c-3.032,3.237-6.851,3.8-10.9,3.519a7.992,7.992,0,0,0,2.74-3.174c.9-1.7,1.808-3.425,2.653-5.185a8.955,8.955,0,0,1,4.081-4.3c.321-.157.612-.283.933-.408-.029-.031-.029-.063-.058-.094h-.262A28.132,28.132,0,0,0,4.861,56.608,13.025,13.025,0,0,0,.779,60.944C-.649,63.521-.008,66.129,2.47,67.48a12.34,12.34,0,0,0,2.682,1.068,21.387,21.387,0,0,0,9.149,0,26.294,26.294,0,0,0,11.207-4.484,12.636,12.636,0,0,0,3.93-4.911A4.345,4.345,0,0,0,28.067,53.465Z" transform="translate(1904.684 1693.132)" fill="#fbfdf6"/>
      <path id="Path_8524" data-name="Path 8524" d="M44.476,21.384c-6.4,0-12.832-.037-19.232.037a29.316,29.316,0,0,0-5.4.524,13.5,13.5,0,0,0-7.8,4.23A11.041,11.041,0,0,0,9.5,30.668a7.247,7.247,0,0,0,.789.075c6.947,0,13.924.037,20.87-.037a16.931,16.931,0,0,0,9.161-2.583,12.419,12.419,0,0,0,5.157-6.738Z" transform="translate(1896.612 1715.602)" fill="#fbfdf6"/>
      <path id="Path_8522" data-name="Path 8522" d="M25.47,53.2a7.88,7.88,0,0,0-1.772-.873c-2.116-.741-2.672-.556-3.783,1.428-.82,1.455-1.534,2.936-2.354,4.391a7.006,7.006,0,0,1-1.27,1.772c-2.751,2.725-6.217,3.2-9.894,2.963a6.9,6.9,0,0,0,2.487-2.672c.82-1.429,1.64-2.883,2.407-4.365a7.815,7.815,0,0,1,3.7-3.624c.291-.132.556-.238.847-.344-.026-.026-.026-.053-.053-.079H15.55A26.714,26.714,0,0,0,4.413,55.847,11.356,11.356,0,0,0,.71,59.5,3.638,3.638,0,0,0,2.244,65a11.721,11.721,0,0,0,2.434.9,19.611,19.611,0,0,0,8.042,0,26.135,26.135,0,0,0,10.343-4.047,10.245,10.245,0,0,0,3.651-3.862A3.5,3.5,0,0,0,25.47,53.2Z" transform="translate(1906.082 1694.554)" fill="#060709"/>
      <path id="Path_8523" data-name="Path 8523" d="M40,21.382c-5.582,0-11.19-.026-16.772.026a31.376,31.376,0,0,0-4.709.37,12.789,12.789,0,0,0-6.8,2.989A7.6,7.6,0,0,0,9.5,27.942c.291.026.476.053.688.053,6.058,0,12.142.026,18.2-.026a17.428,17.428,0,0,0,7.989-1.825,9.312,9.312,0,0,0,4.5-4.762Z" transform="translate(1899.117 1716.93)" fill="#e4783c"/>
    </g>
  </g>
</svg>
