<svg xmlns="http://www.w3.org/2000/svg" width="54" height="54" viewBox="0 0 54 54">
  <g id="Group_10048" data-name="Group 10048" transform="translate(8548 4781)">
    <rect id="Rectangle" width="54" height="54" rx="27" transform="translate(-8548 -4781)" fill="#0053b3"/>
    <g id="Group_10047" data-name="Group 10047" transform="translate(86 7)">
      <path id="Path_8574" data-name="Path 8574" d="M39.678,19.9c.279,10.415-8.8,20.211-20.614,19.777A20.021,20.021,0,0,1,0,19.841a19.839,19.839,0,1,1,39.678.062Zm-3.131-1.271A18.523,18.523,0,0,0,33.664,9.55c-3.193-5.022-7.688-7.936-13.67-8.091a15.047,15.047,0,0,0-11.345,4.8A19.694,19.694,0,0,0,6.386,30.629c4.433,6.6,12.058,9.237,19.033,6.51C32.021,34.6,36.516,27.591,36.547,18.633Z" transform="translate(-8587.315 -4741.306) rotate(180)" fill="#0053b3"/>
      <path id="Path_8575" data-name="Path 8575" d="M7.44,4.774C6.448,5.859,5.549,6.82,4.5,7.967c-1.24-1.3-2.48-2.573-3.658-3.844C-.309,2.883-.278,2.883.931,1.674A18.918,18.918,0,0,0,2.325,0C4.216,1.767,5.859,3.317,7.44,4.774Z" transform="translate(-8605.884 -4762.015) rotate(180)" fill="#ea9a40"/>
      <path id="Path_8576" data-name="Path 8576" d="M4.659,8.555C2.923,6.727,1.5,5.239.133,3.689A.813.813,0,0,1,.1,2.852C.877,1.922,1.714,1.085,2.706,0c1.643,1.7,3.1,3.193,4.526,4.712a.868.868,0,0,1,0,.868C6.457,6.541,5.682,7.378,4.659,8.555Z" transform="translate(-8607.797 -4752.126) rotate(180)" fill="#ea9a40"/>
      <path id="Path_8577" data-name="Path 8577" d="M7.9,3.193C6.324,4.743,4.743,6.324,3.286,7.781,2.108,6.82,1.023,5.921,0,5.053,1.736,3.255,3.286,1.674,4.9,0,5.89,1.054,6.82,2.046,7.9,3.193Z" transform="translate(-8601.699 -4756.218) rotate(180)" fill="#ea9a40"/>
      <path id="Path_8578" data-name="Path 8578" d="M3.955,0C4.978,1.085,5.877,2.046,6.962,3.162,5.536,4.557,4.048,6.014,2.5,7.44c-.155.155-.62.217-.713.093a7.265,7.265,0,0,1-1.736-2.2A2.488,2.488,0,0,1,.638,3.41C1.6,2.263,2.777,1.209,3.955,0Z" transform="translate(-8602.673 -4767.75) rotate(180)" fill="#ea9a40"/>
      <path id="Path_8579" data-name="Path 8579" d="M0,4.743Q2.139,2.557,4.65,0A13.308,13.308,0,0,1,6.634,2.232a1.907,1.907,0,0,1-.5,2.263C5.022,5.58,3.937,6.7,2.79,7.843,1.829,6.789.9,5.735,0,4.743Z" transform="translate(-8611.681 -4758.171) rotate(180)" fill="#ea9a40"/>
      <path id="Path_8580" data-name="Path 8580" d="M2.149,0c1.8,1.8,3.348,3.348,4.96,4.991C6.086,5.983,5.094,6.913,4.2,7.781,2.986,6.634,1.622,5.487.413,4.185A1.712,1.712,0,0,1,.475,1.891C1,1.3,1.529.713,2.149,0Z" transform="translate(-8596.699 -4752.22) rotate(180)" fill="#ea9a40"/>
      <path id="Path_8581" data-name="Path 8581" d="M3.945,7.75C2.922,6.727,1.806,5.642.721,4.526a2.06,2.06,0,0,1,0-3.131C1.186.93,1.651.5,2.178,0L7.044,4.867C6.052,5.8,5.06,6.727,3.945,7.75Z" transform="translate(-8602.528 -4746.671) rotate(180)" fill="#ea9a40"/>
      <path id="Path_8582" data-name="Path 8582" d="M6.972,3.007C5.422,4.495,3.841,6.014,2.136,7.626A17.725,17.725,0,0,1,.555,6.107a1.889,1.889,0,0,1,.124-2.79C1.8,2.2,2.973,1.116,4.151,0,4.988.9,5.918,1.922,6.972,3.007Z" transform="translate(-8596.743 -4762.139) rotate(180)" fill="#ea9a40"/>
    </g>
  </g>
</svg>
