<svg id="svg" version="1.1" xmlns="http://www.w3.org/2000/svg" xmlns:xlink="http://www.w3.org/1999/xlink" width="400" height="200.66889632107024" viewBox="0, 0, 400,200.66889632107024"><g id="svgg"><path id="path0" d="M0.000 66.533 C 0.000 125.539,0.034 133.066,0.301 133.066 C 0.554 133.066,0.602 133.498,0.602 135.750 C 0.602 139.225,0.685 139.631,1.428 139.794 L 2.007 139.922 2.007 142.274 C 2.007 144.765,2.120 145.108,2.943 145.108 C 3.380 145.108,3.400 145.183,3.455 147.065 L 3.512 149.022 4.064 149.085 C 4.595 149.146,4.616 149.193,4.616 150.299 C 4.616 151.544,4.840 151.932,5.559 151.932 C 5.994 151.932,6.021 152.009,6.021 153.236 C 6.021 153.954,6.105 154.541,6.208 154.541 C 6.311 154.541,6.451 154.717,6.520 154.932 C 6.588 155.147,6.820 155.379,7.035 155.447 C 7.340 155.544,7.427 155.756,7.429 156.411 C 7.433 157.662,7.620 158.144,8.152 158.278 C 8.508 158.367,8.630 158.536,8.630 158.938 C 8.630 159.597,8.962 159.960,9.564 159.960 C 9.978 159.960,10.021 160.065,10.076 161.214 C 10.135 162.465,10.138 162.469,10.778 162.531 C 11.419 162.593,11.422 162.598,11.481 163.835 C 11.538 165.018,11.567 165.081,12.081 165.140 C 12.525 165.191,12.632 165.316,12.683 165.843 C 12.737 166.403,12.826 166.491,13.397 166.546 C 13.927 166.597,14.049 166.696,14.049 167.072 C 14.049 168.216,14.311 168.849,14.873 169.061 C 15.294 169.220,15.450 169.426,15.495 169.885 C 15.544 170.385,15.655 170.508,16.106 170.560 C 16.525 170.608,16.658 170.732,16.658 171.072 C 16.658 171.648,17.018 172.002,17.602 172.002 C 17.981 172.002,18.063 172.110,18.063 172.604 C 18.063 173.158,18.119 173.206,18.766 173.206 C 19.435 173.206,19.468 173.240,19.468 173.909 C 19.468 174.552,19.518 174.611,20.058 174.611 C 20.576 174.611,20.655 174.690,20.710 175.263 C 20.765 175.837,20.851 175.923,21.425 175.979 C 21.999 176.034,22.077 176.113,22.077 176.631 C 22.077 177.171,22.136 177.220,22.780 177.220 C 23.449 177.220,23.482 177.254,23.482 177.923 C 23.482 178.566,23.532 178.625,24.072 178.625 C 24.590 178.625,24.669 178.704,24.724 179.277 C 24.779 179.851,24.865 179.937,25.439 179.993 C 26.013 180.048,26.091 180.127,26.091 180.645 C 26.091 181.185,26.150 181.234,26.794 181.234 C 27.463 181.234,27.496 181.268,27.496 181.937 C 27.496 182.583,27.544 182.639,28.098 182.639 C 28.593 182.639,28.700 182.722,28.700 183.101 C 28.700 183.685,29.055 184.044,29.630 184.044 C 29.970 184.044,30.094 184.178,30.142 184.596 C 30.203 185.124,30.259 185.151,31.448 185.207 C 32.685 185.267,32.691 185.270,32.753 185.910 C 32.807 186.473,32.896 186.561,33.467 186.616 C 34.035 186.671,34.119 186.753,34.119 187.247 C 34.119 187.824,34.414 188.058,35.139 188.058 C 35.351 188.058,35.524 188.149,35.524 188.259 C 35.524 188.773,36.351 189.262,37.218 189.262 C 38.075 189.262,38.110 189.286,38.171 189.915 C 38.234 190.567,38.234 190.567,39.488 190.627 C 40.638 190.682,40.743 190.724,40.743 191.139 C 40.743 191.850,41.135 192.072,42.388 192.072 C 43.548 192.072,43.552 192.075,43.552 192.674 L 43.552 193.276 44.844 193.276 L 46.136 193.276 46.199 193.929 C 46.262 194.581,46.262 194.581,47.516 194.641 C 48.589 194.692,48.771 194.755,48.771 195.078 C 48.771 195.776,49.325 196.086,50.568 196.086 C 51.563 196.086,51.750 196.145,51.839 196.485 C 51.982 197.031,52.771 197.291,54.292 197.291 C 55.486 197.291,55.590 197.327,55.835 197.834 C 56.167 198.525,56.648 198.651,59.043 198.675 L 60.987 198.695 61.050 199.246 C 61.132 199.958,61.547 200.046,64.977 200.077 C 67.197 200.096,67.637 200.150,67.637 200.401 C 67.637 200.666,69.164 200.702,80.181 200.702 C 91.197 200.702,92.725 200.666,92.725 200.401 C 92.725 200.150,93.176 200.096,95.484 200.077 C 99.019 200.046,99.429 199.962,99.512 199.246 L 99.575 198.695 101.443 198.695 C 104.031 198.695,104.576 198.562,104.840 197.862 C 105.047 197.312,105.106 197.291,106.403 197.291 C 108.048 197.291,108.781 197.045,108.781 196.493 C 108.781 196.133,108.910 196.086,109.898 196.086 C 111.255 196.086,111.791 195.831,111.791 195.186 C 111.791 194.731,111.869 194.697,113.046 194.641 C 114.300 194.581,114.300 194.581,114.363 193.929 L 114.426 193.276 115.718 193.276 L 117.010 193.276 117.010 192.674 C 117.010 192.075,117.014 192.072,118.174 192.072 C 119.427 192.072,119.819 191.850,119.819 191.139 C 119.819 190.724,119.924 190.682,121.074 190.627 C 122.328 190.567,122.328 190.567,122.391 189.915 C 122.452 189.286,122.486 189.262,123.344 189.262 C 124.202 189.262,125.038 188.774,125.038 188.272 C 125.038 188.168,125.331 188.055,125.690 188.021 C 126.263 187.965,126.350 187.879,126.405 187.306 C 126.463 186.708,126.526 186.653,127.158 186.653 C 127.810 186.653,127.847 186.616,127.847 185.960 L 127.847 185.268 129.102 185.208 C 130.304 185.151,130.359 185.125,130.420 184.596 C 130.468 184.178,130.592 184.044,130.932 184.044 C 131.507 184.044,131.862 183.685,131.862 183.101 C 131.862 182.722,131.969 182.639,132.464 182.639 C 133.018 182.639,133.066 182.583,133.066 181.937 C 133.066 181.268,133.099 181.234,133.768 181.234 C 134.412 181.234,134.471 181.185,134.471 180.645 C 134.471 180.127,134.549 180.048,135.123 179.993 C 135.696 179.937,135.783 179.851,135.838 179.277 C 135.893 178.704,135.972 178.625,136.490 178.625 C 136.825 178.625,137.083 178.517,137.086 178.374 C 137.097 177.984,137.811 177.220,138.166 177.220 C 138.385 177.220,138.485 177.036,138.485 176.631 C 138.485 176.113,138.563 176.034,139.137 175.979 L 139.789 175.916 139.849 174.655 C 139.916 173.240,139.999 173.392,137.632 170.570 C 136.887 169.682,136.277 168.895,136.277 168.823 C 136.277 168.750,135.961 168.335,135.574 167.901 C 135.188 167.467,134.872 167.007,134.872 166.879 C 134.872 166.750,134.682 166.473,134.450 166.263 C 134.218 166.053,133.889 165.610,133.718 165.279 C 133.548 164.948,133.151 164.362,132.836 163.978 C 132.521 163.594,132.263 163.172,132.263 163.040 C 132.263 162.908,132.053 162.545,131.797 162.233 C 131.296 161.623,130.496 160.257,129.706 158.666 C 129.435 158.121,128.997 157.354,128.731 156.964 C 128.466 156.574,128.249 156.107,128.249 155.927 C 128.249 155.747,128.035 155.285,127.773 154.899 C 127.511 154.513,127.137 153.710,126.941 153.115 C 126.744 152.519,126.434 151.839,126.251 151.602 C 126.067 151.366,125.746 150.598,125.537 149.896 C 125.328 149.194,125.103 148.575,125.036 148.520 C 124.867 148.380,124.520 147.425,124.134 146.033 C 123.954 145.383,123.687 144.660,123.542 144.428 C 123.397 144.195,123.132 143.255,122.953 142.340 C 122.774 141.424,122.486 140.340,122.314 139.931 C 122.142 139.522,121.782 137.968,121.516 136.478 C 121.249 134.987,120.898 133.091,120.736 132.263 C 120.574 131.435,120.346 129.674,120.229 128.349 C 119.949 125.184,119.795 124.041,119.643 124.003 C 119.251 123.904,118.437 123.912,118.448 124.014 C 118.627 125.584,118.367 128.014,118.010 128.107 C 117.372 128.274,117.010 129.443,117.010 131.337 L 117.010 133.034 116.407 133.166 C 115.815 133.296,115.805 133.318,115.805 134.587 C 115.805 135.874,115.805 135.876,115.225 135.876 C 114.538 135.876,114.400 136.147,114.400 137.498 C 114.400 138.413,114.364 138.485,113.906 138.485 C 113.280 138.485,112.995 139.006,112.995 140.152 C 112.995 140.982,112.954 141.052,112.393 141.164 C 111.895 141.264,111.791 141.382,111.791 141.850 C 111.791 142.315,111.675 142.450,111.139 142.608 C 110.513 142.792,110.484 142.845,110.427 143.942 C 110.368 145.066,110.357 145.085,109.724 145.146 C 109.162 145.201,109.074 145.289,109.019 145.861 C 108.964 146.434,108.885 146.513,108.367 146.513 C 107.827 146.513,107.777 146.572,107.777 147.215 C 107.777 147.884,107.744 147.918,107.075 147.918 C 106.431 147.918,106.372 147.967,106.372 148.507 C 106.372 149.025,106.294 149.104,105.720 149.159 C 105.146 149.215,105.060 149.301,105.005 149.875 C 104.943 150.519,104.930 150.527,103.891 150.527 C 102.748 150.527,102.358 150.763,102.358 151.457 C 102.358 151.817,102.229 151.919,101.706 151.969 C 101.172 152.021,101.043 152.127,100.993 152.557 C 100.937 153.035,100.834 153.092,99.844 153.194 C 98.517 153.331,98.344 153.429,98.344 154.041 C 98.344 154.490,98.262 154.526,97.090 154.581 C 95.839 154.641,95.835 154.643,95.773 155.285 L 95.711 155.928 94.368 155.987 C 93.070 156.044,93.024 156.064,92.962 156.598 L 92.899 157.150 91.234 157.150 C 88.355 157.150,87.707 157.303,87.707 157.980 L 87.707 158.555 80.294 158.555 L 72.882 158.555 72.818 158.004 C 72.739 157.321,72.298 157.207,69.619 157.174 L 67.687 157.150 67.566 156.548 C 67.447 155.953,67.431 155.946,66.136 155.946 L 64.827 155.946 64.827 155.365 C 64.827 154.680,64.555 154.541,63.218 154.541 C 62.305 154.541,62.240 154.507,62.181 153.989 C 62.122 153.477,62.028 153.424,60.873 153.253 C 59.741 153.085,59.623 153.021,59.569 152.550 C 59.520 152.136,59.386 152.020,58.895 151.972 C 58.399 151.924,58.245 151.788,58.092 151.270 C 57.911 150.655,57.853 150.625,56.761 150.567 C 55.637 150.508,55.618 150.497,55.556 149.865 C 55.502 149.302,55.413 149.214,54.842 149.159 C 54.268 149.104,54.190 149.025,54.190 148.507 C 54.190 147.967,54.131 147.918,53.487 147.918 C 52.818 147.918,52.785 147.884,52.785 147.215 C 52.785 146.572,52.735 146.513,52.195 146.513 C 51.677 146.513,51.598 146.434,51.543 145.861 C 51.488 145.287,51.401 145.201,50.828 145.145 C 50.183 145.083,50.176 145.070,50.176 144.031 C 50.176 142.888,49.939 142.499,49.245 142.499 C 48.885 142.499,48.784 142.369,48.733 141.846 C 48.681 141.303,48.578 141.184,48.118 141.131 C 47.607 141.072,47.566 141.000,47.566 140.164 C 47.566 139.007,47.284 138.485,46.656 138.485 C 46.198 138.485,46.162 138.413,46.162 137.498 C 46.162 136.147,46.024 135.876,45.337 135.876 L 44.757 135.876 44.757 134.566 C 44.757 133.271,44.750 133.255,44.155 133.136 L 43.552 133.016 43.541 131.284 C 43.523 128.614,43.361 127.961,42.697 127.884 L 42.148 127.821 42.148 105.054 L 42.148 82.288 61.385 82.288 C 82.441 82.288,81.745 82.327,82.082 81.116 C 82.303 80.321,82.384 40.424,82.166 39.856 C 82.056 39.569,80.101 39.538,62.096 39.538 L 42.148 39.538 42.148 19.769 L 42.148 0.000 21.074 0.000 L 0.000 0.000 0.000 66.533 " stroke="none" fill="#0454fb" fill-rule="evenodd"></path><path id="path1" d="M118.415 60.014 L 118.413 120.028 118.895 119.941 C 120.186 119.707,120.625 120.647,120.842 124.110 C 120.939 125.669,121.161 127.441,121.335 128.048 C 121.508 128.655,121.788 130.597,121.957 132.363 C 122.167 134.562,122.410 135.986,122.728 136.879 C 122.983 137.597,123.300 138.906,123.433 139.789 C 123.565 140.672,123.885 141.846,124.144 142.398 C 124.403 142.950,124.708 143.987,124.822 144.702 C 124.937 145.418,125.218 146.257,125.448 146.567 C 125.677 146.878,125.984 147.701,126.130 148.398 C 126.275 149.094,126.556 149.852,126.754 150.083 C 126.952 150.314,127.266 150.996,127.453 151.599 C 127.639 152.202,127.979 152.958,128.209 153.281 C 128.439 153.603,128.731 154.284,128.860 154.794 C 128.988 155.303,129.261 155.872,129.466 156.057 C 129.670 156.243,129.981 156.825,130.156 157.351 C 130.330 157.877,130.650 158.467,130.866 158.663 C 131.083 158.858,131.259 159.130,131.259 159.266 C 131.259 159.402,131.587 159.989,131.987 160.571 C 132.387 161.152,132.797 161.930,132.899 162.299 C 133.005 162.682,133.215 162.970,133.388 162.970 C 133.555 162.970,133.875 163.389,134.105 163.907 C 134.332 164.422,134.733 165.057,134.994 165.319 C 135.256 165.580,135.525 166.012,135.592 166.278 C 135.658 166.545,135.916 166.896,136.165 167.059 C 136.413 167.222,136.732 167.633,136.873 167.972 C 137.013 168.312,137.255 168.590,137.410 168.590 C 137.565 168.590,137.774 168.806,137.874 169.070 C 137.975 169.334,138.447 170.005,138.923 170.561 C 141.021 173.008,141.514 174.408,140.339 174.575 C 139.973 174.627,139.894 174.753,139.930 175.228 C 139.974 175.806,140.475 176.174,140.878 175.925 C 140.983 175.860,141.096 176.103,141.131 176.464 C 141.187 177.042,141.272 177.127,141.846 177.183 C 142.444 177.240,142.499 177.304,142.499 177.935 C 142.499 178.587,142.536 178.625,143.188 178.625 C 143.820 178.625,143.884 178.680,143.941 179.277 C 143.993 179.817,144.097 179.941,144.544 179.992 C 144.961 180.040,145.098 180.177,145.146 180.594 C 145.180 180.891,145.321 181.145,145.459 181.159 C 145.597 181.173,145.891 181.195,146.111 181.209 C 146.417 181.228,146.513 181.376,146.513 181.833 C 146.513 182.444,147.203 182.857,147.706 182.546 C 147.832 182.468,147.918 182.611,147.918 182.904 C 147.918 183.571,148.248 183.794,149.478 183.957 C 150.467 184.088,150.527 184.129,150.527 184.672 C 150.527 185.197,150.590 185.248,151.229 185.248 C 151.901 185.248,151.932 185.280,151.932 185.963 C 151.932 186.524,152.008 186.671,152.283 186.643 C 153.106 186.559,153.311 186.665,153.374 187.205 C 153.433 187.718,153.526 187.770,154.691 187.943 C 155.639 188.083,155.946 188.208,155.946 188.455 C 155.946 188.918,156.350 189.262,156.894 189.262 C 157.199 189.262,157.423 189.426,157.540 189.733 C 157.730 190.235,158.476 190.614,159.458 190.709 C 159.977 190.760,160.052 190.840,159.999 191.292 C 159.936 191.839,160.514 192.064,162.004 192.070 C 162.441 192.072,162.554 192.176,162.606 192.624 C 162.672 193.203,162.699 193.213,164.284 193.255 C 165.019 193.274,165.113 193.338,165.287 193.929 C 165.474 194.565,165.510 194.583,166.734 194.641 C 167.794 194.691,167.988 194.757,167.988 195.068 C 167.988 195.700,168.527 195.926,170.293 196.036 L 172.002 196.143 172.002 196.717 L 172.002 197.291 173.996 197.291 L 175.991 197.291 176.054 197.943 L 176.116 198.595 178.675 198.651 L 181.234 198.707 181.234 199.196 C 181.234 199.969,181.787 200.100,185.034 200.100 C 187.588 200.100,188.058 200.147,188.058 200.401 C 188.058 200.666,189.519 200.702,200.000 200.702 C 210.481 200.702,211.942 200.666,211.942 200.401 C 211.942 200.147,212.412 200.100,214.966 200.100 C 218.213 200.100,218.766 199.969,218.766 199.196 L 218.766 198.707 221.325 198.651 L 223.884 198.595 223.946 197.943 L 224.009 197.291 225.652 197.267 C 226.556 197.255,227.454 197.260,227.647 197.280 C 227.913 197.307,227.998 197.166,227.998 196.701 C 227.998 196.096,228.015 196.086,229.052 196.063 C 229.631 196.050,230.196 196.019,230.306 195.993 C 230.416 195.968,230.763 195.933,231.076 195.916 C 231.511 195.893,231.699 195.743,231.873 195.283 C 232.099 194.683,232.570 194.539,233.869 194.671 C 234.062 194.691,234.220 194.605,234.220 194.481 C 234.220 194.358,234.309 194.311,234.418 194.379 C 234.536 194.452,234.563 194.362,234.484 194.157 C 234.395 193.923,234.428 193.859,234.587 193.958 C 234.737 194.050,234.822 193.956,234.822 193.699 C 234.822 193.344,234.973 193.288,236.076 193.236 C 237.267 193.179,237.334 193.149,237.392 192.643 C 237.454 192.113,237.982 191.934,239.695 191.862 C 239.891 191.854,240.039 191.740,240.022 191.609 C 239.925 190.831,240.051 190.667,240.743 190.667 C 241.412 190.667,241.445 190.634,241.445 189.965 L 241.445 189.262 242.750 189.262 C 244.051 189.262,244.054 189.261,244.054 188.688 C 244.054 188.147,244.114 188.107,245.079 187.993 C 246.223 187.857,246.663 187.590,246.663 187.030 C 246.663 186.733,246.812 186.653,247.366 186.653 C 248.035 186.653,248.068 186.620,248.068 185.951 C 248.068 185.282,248.102 185.248,248.771 185.248 C 249.417 185.248,249.473 185.201,249.473 184.646 C 249.473 184.111,249.540 184.044,250.075 184.044 C 250.406 184.044,250.677 183.962,250.677 183.862 C 250.677 183.762,250.845 183.724,251.049 183.777 C 251.440 183.880,252.082 183.380,252.082 182.974 C 252.082 182.843,252.272 182.617,252.505 182.472 C 252.801 182.287,252.883 182.280,252.778 182.450 C 252.682 182.605,252.728 182.655,252.907 182.590 C 253.061 182.534,253.164 182.387,253.136 182.263 C 253.108 182.139,253.176 182.037,253.287 182.037 C 253.397 182.037,253.487 181.862,253.487 181.648 C 253.487 181.357,253.650 181.244,254.139 181.197 C 254.686 181.144,254.806 181.038,254.893 180.532 C 254.976 180.052,255.098 179.930,255.496 179.930 C 255.913 179.930,256.006 179.822,256.059 179.277 C 256.116 178.685,256.183 178.625,256.789 178.625 C 257.194 178.625,257.453 178.527,257.447 178.374 C 257.412 177.412,257.510 177.245,258.154 177.183 C 258.697 177.130,258.816 177.028,258.869 176.568 C 258.914 176.178,259.047 176.016,259.321 176.016 C 259.534 176.016,259.709 175.920,259.709 175.804 C 259.709 175.687,259.799 175.647,259.910 175.715 C 260.027 175.787,260.110 175.583,260.110 175.225 C 260.110 174.820,260.011 174.611,259.816 174.611 C 259.474 174.611,259.107 174.006,259.107 173.442 C 259.107 173.225,258.975 172.998,258.814 172.936 C 258.654 172.874,258.291 172.481,258.008 172.062 C 257.407 171.169,256.288 169.725,255.587 168.938 C 255.315 168.632,255.093 168.252,255.093 168.092 C 255.093 167.932,254.912 167.705,254.692 167.587 C 254.472 167.469,254.109 167.014,253.885 166.576 C 253.662 166.138,253.397 165.780,253.297 165.780 C 253.197 165.780,252.880 165.283,252.593 164.676 C 252.306 164.069,251.978 163.573,251.864 163.573 C 251.751 163.573,251.484 163.178,251.271 162.696 C 251.057 162.214,250.751 161.710,250.590 161.576 C 250.429 161.443,250.138 160.911,249.944 160.396 C 249.750 159.880,249.431 159.341,249.234 159.198 C 249.038 159.055,248.734 158.445,248.559 157.843 C 248.384 157.241,248.158 156.749,248.058 156.749 C 247.829 156.749,247.065 155.272,247.065 154.829 C 247.065 154.647,246.846 154.238,246.578 153.920 C 246.310 153.601,245.991 152.861,245.869 152.274 C 245.747 151.688,245.472 151.058,245.258 150.874 C 245.043 150.690,244.816 150.289,244.752 149.982 C 244.524 148.879,244.180 147.812,243.957 147.516 C 243.571 147.004,243.290 146.205,243.138 145.189 C 243.057 144.654,242.789 143.835,242.542 143.369 C 242.281 142.880,241.989 141.779,241.846 140.755 C 241.711 139.782,241.487 138.851,241.350 138.685 C 240.994 138.256,240.875 137.700,240.535 134.878 C 240.367 133.477,240.007 131.711,239.718 130.864 C 239.350 129.784,239.138 128.565,238.977 126.593 C 238.785 124.240,238.703 123.833,238.417 123.833 C 237.684 123.833,237.535 124.400,237.460 127.476 C 237.397 130.074,237.345 130.457,237.058 130.460 C 236.455 130.465,236.075 130.824,236.427 131.056 C 236.629 131.188,236.645 131.254,236.478 131.256 C 236.307 131.258,236.226 131.627,236.224 132.413 C 236.220 134.057,236.081 134.437,235.454 134.509 C 234.953 134.567,234.916 134.645,234.822 135.854 C 234.736 136.954,234.657 137.160,234.270 137.302 C 234.022 137.394,233.817 137.403,233.815 137.324 C 233.800 136.596,233.422 138.039,233.420 138.836 C 233.417 139.872,233.407 139.890,232.815 139.890 C 232.241 139.890,232.213 139.929,232.210 140.743 C 232.205 142.151,232.042 142.499,231.387 142.499 C 230.861 142.499,230.808 142.562,230.808 143.188 C 230.808 143.820,230.753 143.884,230.156 143.941 C 229.612 143.994,229.493 144.096,229.440 144.556 C 229.402 144.883,229.254 145.108,229.077 145.108 C 228.912 145.108,228.828 145.190,228.890 145.290 C 228.951 145.390,228.821 145.425,228.600 145.367 C 228.256 145.277,228.199 145.360,228.199 145.949 C 228.199 146.592,228.157 146.635,227.546 146.624 C 227.107 146.617,226.885 146.711,226.867 146.914 C 226.852 147.080,226.830 147.373,226.817 147.566 C 226.800 147.818,226.622 147.918,226.187 147.918 C 225.677 147.918,225.561 148.011,225.463 148.499 C 225.375 148.940,225.206 149.108,224.764 149.197 C 224.444 149.261,224.193 149.383,224.207 149.468 C 224.338 150.273,224.164 150.527,223.482 150.527 C 222.813 150.527,222.780 150.560,222.780 151.229 L 222.780 151.932 221.793 151.932 C 220.495 151.932,220.171 152.076,220.171 152.656 C 220.171 152.920,220.058 153.146,219.920 153.157 C 219.782 153.169,219.488 153.192,219.267 153.207 C 218.969 153.229,218.850 153.403,218.803 153.889 C 218.741 154.536,217.946 154.757,216.404 154.555 C 216.265 154.537,216.162 154.594,216.177 154.682 C 216.192 154.770,216.193 155.087,216.180 155.387 L 216.157 155.931 214.200 155.989 L 212.243 156.046 212.179 156.598 C 212.119 157.120,212.059 157.150,211.075 157.157 C 207.908 157.177,207.014 157.368,206.840 158.060 L 206.716 158.555 199.991 158.555 L 193.267 158.555 193.083 158.073 C 192.814 157.365,192.643 157.313,190.305 157.224 C 188.074 157.140,187.942 157.099,187.823 156.448 C 187.745 156.019,187.760 156.022,185.499 155.976 C 184.209 155.949,184.044 155.902,184.044 155.561 C 184.044 154.669,183.853 154.541,182.530 154.541 L 181.260 154.541 181.197 153.889 C 181.142 153.315,181.055 153.229,180.482 153.173 C 180.020 153.129,179.829 153.009,179.829 152.762 C 179.829 152.168,179.390 151.932,178.284 151.932 L 177.220 151.932 177.220 151.229 C 177.220 150.589,177.169 150.527,176.643 150.527 C 176.162 150.527,176.046 150.426,175.945 149.923 C 175.879 149.591,175.755 149.330,175.670 149.343 C 175.171 149.417,174.642 149.024,174.537 148.502 C 174.439 148.011,174.323 147.918,173.813 147.918 C 173.263 147.918,173.206 147.857,173.203 147.265 C 173.201 146.770,173.153 146.686,173.006 146.914 C 172.839 147.171,172.811 147.164,172.808 146.864 C 172.806 146.655,172.652 146.513,172.428 146.513 C 172.173 146.513,172.015 146.324,171.935 145.929 C 171.846 145.484,171.675 145.313,171.220 145.213 C 170.761 145.112,170.607 144.956,170.559 144.543 C 170.508 144.097,170.384 143.993,169.844 143.941 C 169.247 143.884,169.192 143.820,169.192 143.188 C 169.192 142.556,169.142 142.499,168.590 142.499 C 167.998 142.499,167.988 142.481,167.985 141.445 C 167.981 140.219,167.860 139.982,167.213 139.941 C 166.594 139.902,166.613 139.936,166.561 138.781 C 166.504 137.499,166.391 137.145,166.157 137.515 C 166.019 137.731,165.986 137.732,165.984 137.520 C 165.982 137.375,165.909 137.301,165.821 137.356 C 165.429 137.598,165.184 137.069,165.133 135.867 C 165.080 134.618,165.058 134.569,164.526 134.507 C 164.015 134.449,163.972 134.374,163.953 133.504 C 163.941 132.987,163.911 132.428,163.887 132.263 C 163.862 132.097,163.826 131.709,163.808 131.399 C 163.781 130.970,163.631 130.788,163.171 130.627 L 162.569 130.417 162.550 128.681 C 162.539 127.726,162.546 126.596,162.567 126.169 C 162.590 125.661,162.529 125.440,162.388 125.527 C 162.255 125.610,162.218 125.541,162.292 125.348 C 162.443 124.956,161.859 124.034,161.461 124.034 C 161.235 124.034,161.164 123.772,161.164 122.944 C 161.164 121.862,160.761 121.355,160.183 121.712 C 160.006 121.821,159.759 121.398,159.759 120.985 C 159.759 120.868,160.061 120.814,160.461 120.861 L 161.162 120.943 161.213 101.613 L 161.264 82.284 181.015 82.284 C 195.225 82.284,200.842 82.222,201.035 82.061 C 201.257 81.877,201.305 78.129,201.305 60.688 L 201.305 39.538 181.234 39.538 L 161.164 39.538 161.164 19.769 L 161.164 0.000 139.791 -0.000 L 118.417 -0.000 118.415 60.014 " stroke="none" fill="#f48c1c" fill-rule="evenodd"></path><path id="path2" d="M118.637 120.006 C 118.041 120.375,118.453 122.523,119.133 122.589 C 119.824 122.657,119.734 122.307,120.536 128.048 C 120.713 129.318,121.068 131.530,121.325 132.965 C 121.582 134.400,121.901 136.252,122.034 137.080 C 122.168 137.908,122.389 138.811,122.526 139.087 C 122.663 139.363,122.890 140.221,123.030 140.993 C 123.170 141.766,123.488 142.940,123.736 143.603 C 123.985 144.265,124.354 145.394,124.557 146.111 C 124.761 146.829,125.132 147.822,125.383 148.319 C 125.634 148.816,125.839 149.358,125.840 149.524 C 125.840 149.690,126.157 150.477,126.543 151.274 C 126.929 152.070,127.245 152.803,127.245 152.902 C 127.245 153.190,130.477 159.558,130.624 159.559 C 130.698 159.560,130.921 159.957,131.120 160.441 C 131.319 160.926,131.658 161.482,131.873 161.676 C 132.087 161.870,132.263 162.144,132.263 162.284 C 132.263 162.424,132.584 162.959,132.976 163.473 C 133.369 163.987,133.837 164.716,134.017 165.094 C 134.197 165.471,134.411 165.780,134.491 165.780 C 134.572 165.780,134.844 166.119,135.096 166.533 C 135.538 167.262,137.710 170.084,138.456 170.898 C 138.658 171.119,139.060 171.676,139.348 172.136 C 139.637 172.596,139.975 173.035,140.100 173.112 C 140.242 173.200,140.278 173.513,140.196 173.949 C 140.084 174.549,140.116 174.636,140.429 174.576 C 141.495 174.374,140.953 172.929,138.923 170.561 C 138.447 170.005,137.975 169.334,137.874 169.070 C 137.774 168.806,137.565 168.590,137.410 168.590 C 137.255 168.590,137.013 168.312,136.873 167.972 C 136.732 167.633,136.413 167.222,136.165 167.059 C 135.916 166.896,135.658 166.545,135.592 166.278 C 135.525 166.012,135.256 165.580,134.994 165.319 C 134.733 165.057,134.332 164.422,134.105 163.907 C 133.875 163.389,133.555 162.970,133.388 162.970 C 133.215 162.970,133.005 162.682,132.899 162.299 C 132.797 161.930,132.387 161.152,131.987 160.571 C 131.587 159.989,131.259 159.402,131.259 159.266 C 131.259 159.130,131.083 158.858,130.866 158.663 C 130.650 158.467,130.330 157.877,130.156 157.351 C 129.981 156.825,129.670 156.243,129.466 156.057 C 129.261 155.872,128.988 155.303,128.860 154.794 C 128.731 154.284,128.439 153.603,128.209 153.281 C 127.979 152.958,127.639 152.202,127.453 151.599 C 127.266 150.996,126.952 150.314,126.754 150.083 C 126.556 149.852,126.275 149.094,126.130 148.398 C 125.984 147.701,125.677 146.878,125.448 146.567 C 125.218 146.257,124.937 145.418,124.822 144.702 C 124.708 143.987,124.403 142.950,124.144 142.398 C 123.885 141.846,123.565 140.672,123.433 139.789 C 123.300 138.906,122.983 137.597,122.728 136.879 C 122.410 135.986,122.167 134.562,121.957 132.363 C 121.788 130.597,121.508 128.655,121.335 128.048 C 121.161 127.441,120.939 125.669,120.842 124.110 C 120.744 122.552,120.569 121.099,120.453 120.882 C 120.040 120.110,119.158 119.685,118.637 120.006 M159.762 121.061 C 159.767 121.506,160.035 121.724,160.625 121.766 C 161.101 121.799,161.179 121.736,161.126 121.364 C 161.054 120.857,159.756 120.568,159.762 121.061 M238.863 125.038 C 238.820 126.548,239.250 129.445,239.730 130.874 C 240.007 131.700,240.370 133.502,240.535 134.878 C 240.875 137.700,240.994 138.256,241.350 138.685 C 241.487 138.851,241.711 139.782,241.846 140.755 C 241.989 141.779,242.281 142.880,242.542 143.369 C 242.789 143.835,243.057 144.654,243.138 145.189 C 243.290 146.205,243.571 147.004,243.957 147.516 C 244.180 147.812,244.524 148.879,244.752 149.982 C 244.816 150.289,245.043 150.690,245.258 150.874 C 245.472 151.058,245.747 151.688,245.869 152.274 C 245.991 152.861,246.310 153.601,246.578 153.920 C 246.846 154.238,247.065 154.647,247.065 154.829 C 247.065 155.272,247.829 156.749,248.058 156.749 C 248.158 156.749,248.384 157.241,248.559 157.843 C 248.734 158.445,249.038 159.055,249.234 159.198 C 249.431 159.341,249.750 159.880,249.944 160.396 C 250.138 160.911,250.429 161.443,250.590 161.576 C 250.751 161.710,251.057 162.214,251.271 162.696 C 251.484 163.178,251.751 163.573,251.864 163.573 C 251.978 163.573,252.306 164.069,252.593 164.676 C 252.880 165.283,253.197 165.780,253.297 165.780 C 253.397 165.780,253.662 166.138,253.885 166.576 C 254.109 167.014,254.472 167.469,254.692 167.587 C 254.912 167.705,255.093 167.932,255.093 168.092 C 255.093 168.252,255.315 168.632,255.587 168.938 C 256.288 169.725,257.407 171.169,258.008 172.062 C 258.291 172.481,258.654 172.874,258.814 172.936 C 258.975 172.998,259.107 173.225,259.107 173.442 C 259.107 173.937,259.460 174.611,259.720 174.611 C 259.828 174.611,259.870 174.385,259.813 174.109 C 259.756 173.833,259.667 173.403,259.616 173.152 C 259.565 172.901,259.362 172.517,259.165 172.297 C 258.544 171.606,257.217 169.979,256.799 169.395 C 256.578 169.087,255.900 168.170,255.292 167.358 C 254.684 166.545,253.984 165.610,253.737 165.278 C 253.490 164.947,253.095 164.315,252.859 163.874 C 252.623 163.432,252.359 163.025,252.273 162.969 C 252.014 162.801,249.731 158.783,249.081 157.351 C 248.855 156.854,248.578 156.312,248.465 156.147 C 248.352 155.981,248.028 155.349,247.744 154.742 C 247.461 154.134,246.967 153.097,246.645 152.437 C 246.324 151.776,246.061 151.098,246.060 150.931 C 246.060 150.764,245.867 150.311,245.631 149.925 C 245.395 149.538,245.043 148.680,244.849 148.018 C 244.655 147.356,244.341 146.454,244.153 146.015 C 243.964 145.576,243.638 144.537,243.428 143.707 C 243.219 142.877,242.971 142.061,242.877 141.895 C 242.783 141.728,242.552 140.870,242.363 139.988 C 242.175 139.106,241.811 137.572,241.554 136.578 C 241.297 135.585,240.983 133.823,240.856 132.664 C 240.266 127.284,240.209 126.968,239.665 126.141 C 239.375 125.700,239.080 125.113,239.010 124.837 C 238.901 124.403,238.881 124.430,238.863 125.038 " stroke="none" fill="#bc743c" fill-rule="evenodd"></path><path id="path3" d="M238.852 60.963 C 238.860 94.493,238.913 121.814,238.969 121.676 C 239.025 121.538,239.319 121.425,239.623 121.425 C 240.614 121.425,240.815 122.433,241.228 129.453 C 241.372 131.903,241.530 133.063,241.835 133.913 C 242.062 134.545,242.345 135.945,242.465 137.024 C 242.611 138.338,242.836 139.285,243.147 139.890 C 243.422 140.423,243.718 141.552,243.871 142.649 C 244.014 143.670,244.202 144.506,244.288 144.506 C 244.574 144.506,245.000 145.590,245.255 146.967 C 245.393 147.714,245.627 148.393,245.776 148.477 C 246.069 148.641,246.663 150.154,246.663 150.737 C 246.663 150.936,246.876 151.353,247.136 151.665 C 247.397 151.978,247.734 152.730,247.886 153.337 C 248.038 153.945,248.347 154.590,248.574 154.773 C 248.801 154.955,249.109 155.585,249.260 156.172 C 249.424 156.812,249.719 157.386,249.998 157.605 C 250.253 157.806,250.520 158.280,250.591 158.658 C 250.662 159.036,250.923 159.551,251.172 159.803 C 251.420 160.055,251.736 160.606,251.873 161.028 C 252.010 161.449,252.247 161.842,252.398 161.900 C 252.550 161.958,252.904 162.494,253.187 163.090 C 253.469 163.687,253.773 164.175,253.863 164.175 C 253.953 164.175,254.198 164.513,254.409 164.927 C 254.619 165.340,255.041 165.919,255.345 166.212 C 255.649 166.506,255.952 167.018,256.019 167.349 C 256.090 167.705,256.295 167.993,256.517 168.051 C 256.724 168.105,256.986 168.391,257.098 168.685 C 257.210 168.979,257.594 169.520,257.953 169.888 C 260.005 171.991,260.076 172.120,260.121 173.823 C 260.164 175.448,260.288 176.016,260.603 176.016 C 260.971 176.016,261.434 176.622,261.701 177.455 C 261.954 178.244,262.626 178.625,263.765 178.625 C 264.086 178.625,264.296 178.711,264.230 178.817 C 263.933 179.299,264.366 180.030,264.949 180.030 C 265.460 180.030,265.529 180.102,265.529 180.632 C 265.529 181.187,265.585 181.234,266.232 181.234 C 266.898 181.234,266.934 181.270,266.934 181.924 C 266.934 182.555,266.990 182.619,267.586 182.677 C 268.134 182.730,268.253 182.835,268.339 183.342 C 268.420 183.818,268.557 183.957,268.992 184.007 C 269.295 184.042,269.554 184.178,269.567 184.308 C 269.579 184.439,269.602 184.681,269.617 184.847 C 269.635 185.056,269.951 185.179,270.645 185.248 C 271.503 185.334,271.703 185.441,272.049 185.993 C 272.342 186.459,272.606 186.640,273.006 186.646 C 273.524 186.653,273.638 186.853,273.540 187.584 C 273.512 187.799,274.033 188.052,274.511 188.055 C 274.767 188.057,274.962 188.182,274.962 188.345 C 274.962 188.914,275.573 189.262,276.570 189.262 C 277.525 189.262,277.547 189.277,277.609 189.915 C 277.672 190.565,277.675 190.567,278.900 190.626 C 280.091 190.683,280.133 190.704,280.311 191.329 C 280.490 191.954,280.529 191.974,281.743 192.032 C 282.977 192.091,282.990 192.098,282.990 192.684 L 282.990 193.276 284.282 193.276 L 285.574 193.276 285.637 193.929 C 285.700 194.579,285.703 194.581,287.005 194.681 C 288.211 194.774,288.314 194.819,288.379 195.283 C 288.474 195.955,288.721 196.080,289.965 196.083 C 290.743 196.085,291.019 196.161,291.019 196.373 C 291.019 197.052,291.611 197.291,293.297 197.291 C 294.924 197.291,294.947 197.298,295.160 197.862 C 295.424 198.562,295.969 198.695,298.557 198.695 L 300.425 198.695 300.488 199.246 C 300.571 199.962,300.981 200.046,304.516 200.077 C 306.824 200.096,307.275 200.150,307.275 200.401 C 307.275 200.666,308.803 200.702,319.819 200.702 C 330.836 200.702,332.363 200.666,332.363 200.401 C 332.363 200.150,332.803 200.096,335.023 200.077 C 338.453 200.046,338.868 199.958,338.950 199.246 L 339.013 198.695 340.957 198.695 C 343.006 198.694,344.205 198.288,344.205 197.595 C 344.205 197.352,344.487 197.291,345.597 197.291 C 347.223 197.291,348.016 197.042,348.161 196.485 C 348.250 196.145,348.437 196.086,349.432 196.086 C 350.680 196.086,351.229 195.775,351.229 195.068 C 351.229 194.726,351.379 194.681,352.534 194.681 L 353.838 194.681 353.838 193.979 L 353.838 193.276 355.143 193.276 L 356.448 193.276 356.448 192.674 C 356.448 192.075,356.452 192.072,357.612 192.072 C 358.865 192.072,359.257 191.850,359.257 191.139 C 359.257 190.724,359.362 190.682,360.512 190.627 C 361.766 190.567,361.766 190.567,361.829 189.915 C 361.884 189.345,361.965 189.262,362.468 189.262 C 363.328 189.262,364.100 188.907,364.217 188.457 C 364.283 188.205,364.492 188.058,364.784 188.058 C 365.593 188.058,365.881 187.842,365.881 187.234 C 365.881 186.704,365.942 186.653,366.583 186.653 C 367.250 186.653,367.285 186.618,367.285 185.960 L 367.285 185.268 368.540 185.208 C 369.742 185.151,369.797 185.125,369.858 184.596 C 369.906 184.178,370.030 184.044,370.370 184.044 C 370.945 184.044,371.300 183.685,371.300 183.101 C 371.300 182.722,371.407 182.639,371.902 182.639 C 372.456 182.639,372.504 182.583,372.504 181.937 C 372.504 181.268,372.537 181.234,373.206 181.234 C 373.850 181.234,373.909 181.185,373.909 180.645 C 373.909 180.127,373.987 180.048,374.561 179.993 C 375.135 179.937,375.221 179.851,375.276 179.277 C 375.331 178.704,375.410 178.625,375.928 178.625 C 376.468 178.625,376.518 178.566,376.518 177.923 C 376.518 177.254,376.551 177.220,377.220 177.220 C 377.864 177.220,377.923 177.171,377.923 176.631 C 377.923 176.113,378.001 176.034,378.575 175.979 C 379.149 175.923,379.235 175.837,379.290 175.263 C 379.345 174.690,379.424 174.611,379.942 174.611 C 380.482 174.611,380.532 174.552,380.532 173.909 C 380.532 173.240,380.565 173.206,381.234 173.206 C 381.881 173.206,381.937 173.158,381.937 172.604 C 381.937 172.110,382.019 172.002,382.398 172.002 C 382.982 172.002,383.342 171.648,383.342 171.072 C 383.342 170.732,383.475 170.608,383.894 170.560 C 384.373 170.505,384.454 170.398,384.508 169.744 C 384.547 169.271,384.672 168.991,384.845 168.991 C 385.269 168.991,385.951 167.897,385.951 167.217 C 385.951 166.677,386.024 166.601,386.603 166.546 C 387.174 166.491,387.263 166.403,387.317 165.843 C 387.368 165.316,387.475 165.191,387.919 165.140 C 388.433 165.081,388.462 165.018,388.519 163.835 C 388.578 162.598,388.581 162.593,389.222 162.531 C 389.862 162.469,389.865 162.463,389.924 161.226 C 389.983 159.989,389.986 159.984,390.626 159.922 C 391.210 159.865,391.275 159.791,391.331 159.116 C 391.372 158.628,391.597 158.154,391.983 157.740 C 392.510 157.177,392.574 156.968,392.574 155.824 L 392.574 154.541 393.276 154.541 L 393.979 154.541 393.979 153.236 C 393.979 152.009,394.006 151.932,394.441 151.932 C 395.161 151.932,395.384 151.544,395.384 150.286 C 395.384 149.299,395.439 149.122,395.745 149.122 C 396.428 149.122,396.588 148.696,396.588 146.874 C 396.588 145.131,396.594 145.108,397.083 145.108 C 397.826 145.108,397.993 144.559,397.993 142.106 L 397.993 139.880 398.574 139.763 C 399.319 139.614,399.398 139.229,399.398 135.750 C 399.398 133.498,399.446 133.066,399.699 133.066 C 399.963 133.066,400.000 131.471,400.000 119.920 C 400.000 108.368,399.963 106.774,399.699 106.774 C 399.449 106.774,399.397 106.377,399.395 104.415 C 399.392 101.507,399.324 101.230,398.583 101.081 L 398.005 100.966 397.949 98.401 L 397.893 95.835 397.247 95.773 L 396.602 95.711 396.545 93.766 L 396.488 91.821 395.936 91.758 C 395.404 91.697,395.384 91.651,395.384 90.528 C 395.384 89.292,395.113 88.835,394.445 88.949 C 394.122 89.004,394.073 88.838,394.028 87.506 C 393.954 85.305,393.881 85.098,393.172 85.098 L 392.574 85.098 392.574 83.788 C 392.574 82.505,392.562 82.476,391.995 82.363 C 391.472 82.258,391.403 82.148,391.280 81.219 C 391.127 80.070,390.892 79.679,390.354 79.679 C 390.090 79.679,389.973 79.500,389.927 79.027 C 389.872 78.453,389.786 78.367,389.212 78.311 L 388.560 78.249 388.560 76.957 L 388.560 75.665 387.971 75.665 C 387.452 75.665,387.374 75.586,387.318 75.013 C 387.263 74.439,387.177 74.353,386.603 74.297 C 385.965 74.236,385.951 74.213,385.951 73.260 C 385.951 71.923,385.812 71.651,385.127 71.651 C 384.597 71.651,384.546 71.589,384.546 70.948 C 384.546 70.302,384.498 70.246,383.944 70.246 C 383.409 70.246,383.342 70.179,383.342 69.644 C 383.342 69.313,383.251 69.030,383.141 69.017 C 383.031 69.003,382.850 68.969,382.740 68.941 C 382.629 68.914,382.403 68.880,382.238 68.866 C 382.043 68.850,381.937 68.629,381.937 68.239 C 381.937 67.685,381.881 67.637,381.234 67.637 L 380.532 67.637 380.532 66.557 C 380.532 65.449,380.348 65.130,379.630 64.997 C 379.368 64.948,379.195 64.716,379.128 64.323 C 379.046 63.849,378.909 63.710,378.474 63.660 C 378.056 63.611,377.923 63.487,377.923 63.148 C 377.923 62.576,377.564 62.218,376.993 62.218 C 376.657 62.218,376.529 62.084,376.481 61.684 C 376.441 61.349,376.280 61.130,376.051 61.097 C 375.329 60.994,375.113 60.818,375.113 60.339 C 375.113 59.753,374.792 59.609,373.491 59.609 L 372.504 59.609 372.504 58.906 C 372.504 58.263,372.454 58.204,371.914 58.204 C 371.396 58.204,371.317 58.125,371.262 57.551 C 371.223 57.149,371.084 56.889,370.898 56.872 C 370.733 56.857,370.439 56.835,370.246 56.822 C 369.995 56.805,369.895 56.628,369.895 56.197 C 369.895 55.642,369.839 55.595,369.192 55.595 C 368.551 55.595,368.490 55.544,368.490 55.014 C 368.490 54.329,368.218 54.190,366.880 54.190 C 365.928 54.190,365.905 54.175,365.843 53.537 C 365.804 53.135,365.665 52.875,365.479 52.858 C 365.314 52.843,365.020 52.821,364.827 52.808 C 364.576 52.791,364.476 52.613,364.476 52.183 L 364.476 51.581 363.171 51.581 L 361.867 51.581 361.867 50.878 C 361.867 50.209,361.833 50.176,361.164 50.176 C 360.611 50.176,360.462 50.096,360.462 49.799 C 360.462 49.248,360.077 49.014,358.922 48.861 C 357.997 48.738,357.882 48.667,357.780 48.155 C 357.671 47.611,357.610 47.583,356.404 47.526 C 355.231 47.470,355.138 47.431,355.073 46.964 C 354.978 46.293,354.731 46.168,353.487 46.165 C 352.591 46.162,352.434 46.105,352.434 45.785 C 352.434 45.057,351.634 44.800,349.272 44.768 C 348.461 44.757,348.419 44.727,348.419 44.155 L 348.419 43.552 346.425 43.552 L 344.431 43.552 344.368 42.900 L 344.305 42.248 342.361 42.191 C 340.429 42.134,340.416 42.130,340.354 41.606 C 340.313 41.268,340.148 41.052,339.890 41.004 C 339.065 40.848,337.624 40.760,335.738 40.752 L 333.795 40.743 333.731 40.191 L 333.668 39.639 319.764 39.587 L 305.861 39.536 305.740 40.139 L 305.620 40.743 303.588 40.751 C 299.578 40.766,299.047 40.872,299.047 41.658 C 299.047 42.144,299.034 42.148,297.040 42.148 C 295.932 42.148,295.033 42.231,295.033 42.335 C 295.033 42.438,294.857 42.578,294.641 42.646 C 294.426 42.714,294.194 42.946,294.126 43.161 C 294.018 43.503,293.813 43.552,292.510 43.552 L 291.019 43.552 291.019 44.125 L 291.019 44.697 289.181 44.816 C 287.303 44.938,286.918 45.119,287.081 45.802 C 287.151 46.094,286.969 46.153,285.829 46.203 L 284.496 46.262 284.433 46.914 L 284.370 47.566 283.095 47.566 C 282.263 47.566,281.785 47.654,281.718 47.817 C 281.663 47.955,281.610 37.253,281.601 24.034 L 281.586 0.000 260.211 0.000 L 238.836 0.000 238.852 60.963 M328.550 82.865 C 328.550 83.551,329.003 83.693,331.184 83.693 C 332.506 83.693,332.564 83.713,332.564 84.173 C 332.564 84.796,332.872 84.897,334.766 84.897 L 336.333 84.897 336.464 85.600 L 336.596 86.302 337.879 86.302 L 339.162 86.302 339.225 86.954 C 339.280 87.528,339.366 87.614,339.940 87.670 C 340.513 87.725,340.592 87.804,340.592 88.322 L 340.592 88.911 341.897 88.911 L 343.201 88.911 343.201 89.614 C 343.201 90.260,343.249 90.316,343.803 90.316 C 344.298 90.316,344.405 90.399,344.405 90.778 C 344.405 91.366,344.761 91.721,345.349 91.721 C 345.728 91.721,345.810 91.829,345.810 92.323 C 345.810 92.877,345.866 92.925,346.513 92.925 C 347.182 92.925,347.215 92.959,347.215 93.628 C 347.215 94.274,347.263 94.330,347.817 94.330 C 348.363 94.330,348.525 94.506,348.436 95.004 C 348.378 95.328,348.870 95.735,349.320 95.735 C 349.703 95.735,349.789 95.873,349.898 96.668 C 350.043 97.731,350.310 98.144,350.852 98.144 C 351.150 98.144,351.229 98.293,351.229 98.851 C 351.229 99.477,351.299 99.572,351.831 99.679 C 352.188 99.750,352.443 99.932,352.457 100.125 C 352.469 100.305,352.501 100.542,352.526 100.652 C 352.552 100.763,352.587 101.149,352.604 101.510 C 352.630 102.070,352.723 102.185,353.236 102.288 C 353.797 102.400,353.838 102.470,353.838 103.300 C 353.838 104.446,354.123 104.967,354.749 104.967 C 355.224 104.967,355.243 105.019,355.243 106.277 C 355.243 107.572,355.250 107.588,355.845 107.707 C 356.416 107.821,356.449 107.881,356.473 108.856 C 356.487 109.422,356.515 110.156,356.534 110.487 C 356.553 110.818,356.586 111.435,356.608 111.859 C 356.642 112.514,356.738 112.663,357.250 112.856 L 357.852 113.083 357.852 120.452 L 357.852 127.821 357.319 127.884 C 356.975 127.925,356.756 128.091,356.704 128.349 C 356.591 128.917,356.463 130.774,356.455 131.987 C 356.448 132.967,356.419 133.021,355.845 133.136 C 355.251 133.255,355.243 133.273,355.243 134.553 L 355.243 135.850 354.591 135.913 C 353.939 135.976,353.939 135.976,353.879 137.230 C 353.823 138.400,353.787 138.485,353.343 138.485 C 352.890 138.485,352.202 139.725,352.493 140.016 C 352.783 140.306,352.277 141.186,351.818 141.190 C 351.415 141.193,351.319 141.308,351.267 141.846 C 351.216 142.369,351.115 142.499,350.755 142.499 C 350.061 142.499,349.824 142.888,349.824 144.031 C 349.824 145.070,349.817 145.083,349.172 145.145 C 348.770 145.184,348.509 145.324,348.493 145.509 C 348.478 145.675,348.455 145.968,348.443 146.162 C 348.426 146.413,348.248 146.513,347.817 146.513 C 347.263 146.513,347.215 146.569,347.215 147.215 C 347.215 147.884,347.182 147.918,346.513 147.918 C 345.869 147.918,345.810 147.967,345.810 148.507 C 345.810 149.025,345.732 149.104,345.158 149.159 C 344.756 149.198,344.495 149.338,344.479 149.523 C 344.464 149.689,344.441 149.982,344.429 150.176 C 344.410 150.463,344.212 150.527,343.342 150.527 C 342.180 150.527,341.796 150.761,341.796 151.470 C 341.796 151.850,341.689 151.932,341.189 151.932 C 340.681 151.932,340.563 152.026,340.467 152.508 C 340.361 153.038,340.265 153.093,339.273 153.195 C 337.952 153.332,337.782 153.429,337.782 154.051 C 337.782 154.504,337.708 154.541,336.795 154.541 C 335.444 154.541,335.173 154.679,335.173 155.365 L 335.173 155.946 333.862 155.946 C 332.798 155.946,332.526 156.012,332.418 156.297 C 332.148 157.010,331.802 157.146,330.191 157.170 C 328.266 157.198,327.254 157.382,327.220 157.710 C 327.206 157.844,327.184 158.088,327.170 158.254 C 327.148 158.516,326.175 158.555,319.719 158.555 L 312.293 158.555 312.293 158.065 C 312.293 157.332,311.659 157.183,308.443 157.160 C 307.131 157.150,307.100 157.138,307.038 156.598 C 306.976 156.064,306.931 156.044,305.620 155.987 C 304.278 155.928,304.265 155.922,304.265 155.356 C 304.265 154.680,303.989 154.541,302.643 154.541 C 301.730 154.541,301.656 154.504,301.656 154.051 C 301.656 153.428,301.487 153.332,300.156 153.194 C 299.166 153.092,299.063 153.035,299.007 152.557 C 298.957 152.127,298.828 152.021,298.294 151.969 C 297.814 151.923,297.642 151.808,297.642 151.532 C 297.642 150.878,297.080 150.527,296.035 150.527 C 295.080 150.527,295.057 150.512,294.995 149.875 C 294.940 149.301,294.854 149.215,294.280 149.159 C 293.706 149.104,293.628 149.025,293.628 148.507 C 293.628 147.967,293.569 147.918,292.925 147.918 C 292.256 147.918,292.223 147.884,292.223 147.215 C 292.223 146.572,292.173 146.513,291.633 146.513 C 291.115 146.513,291.036 146.434,290.981 145.861 C 290.926 145.287,290.839 145.201,290.266 145.145 C 289.632 145.084,289.614 145.056,289.611 144.142 C 289.607 143.010,289.477 142.774,288.759 142.593 C 288.322 142.484,288.209 142.339,288.209 141.888 C 288.209 141.314,287.645 140.923,287.207 141.193 C 287.082 141.270,287.005 140.972,287.005 140.416 C 287.005 139.099,286.719 138.485,286.106 138.485 C 285.638 138.485,285.600 138.414,285.600 137.568 C 285.600 136.398,285.319 135.876,284.689 135.876 C 284.215 135.876,284.195 135.823,284.195 134.587 C 284.195 133.322,284.184 133.296,283.600 133.168 L 283.005 133.037 282.948 131.195 L 282.890 129.353 282.238 129.161 L 281.586 128.969 281.571 125.849 C 281.564 124.133,281.496 122.865,281.421 123.031 C 281.302 123.294,280.181 123.604,280.181 123.373 C 280.181 123.325,280.093 122.827,279.987 122.265 C 279.655 120.515,280.655 119.145,281.369 120.371 C 281.512 120.618,281.575 119.389,281.579 116.257 C 281.585 111.982,281.602 111.791,281.973 111.791 C 282.761 111.791,282.990 111.266,282.990 109.464 L 282.990 107.767 283.593 107.647 L 284.195 107.526 284.195 105.657 L 284.195 103.789 284.847 103.726 L 285.499 103.663 285.559 102.308 L 285.618 100.953 286.311 100.953 C 286.941 100.953,287.005 100.901,287.005 100.376 C 287.005 99.896,287.105 99.779,287.607 99.679 C 288.202 99.560,288.209 99.543,288.209 98.249 L 288.209 96.939 288.911 96.939 C 289.555 96.939,289.614 96.890,289.614 96.350 C 289.614 95.832,289.692 95.753,290.266 95.698 C 290.839 95.642,290.926 95.556,290.981 94.982 C 291.036 94.409,291.115 94.330,291.633 94.330 C 292.173 94.330,292.223 94.271,292.223 93.628 C 292.223 92.959,292.256 92.925,292.925 92.925 C 293.569 92.925,293.628 92.876,293.628 92.336 C 293.628 91.818,293.706 91.739,294.280 91.684 C 294.854 91.628,294.940 91.542,294.995 90.968 C 295.050 90.395,295.129 90.316,295.647 90.316 C 296.187 90.316,296.237 90.257,296.237 89.614 L 296.237 88.911 297.516 88.911 C 298.777 88.911,298.798 88.903,298.916 88.309 C 299.018 87.799,299.130 87.707,299.644 87.707 C 300.202 87.707,300.251 87.651,300.251 87.014 L 300.251 86.320 301.606 86.261 L 302.960 86.202 303.023 85.549 L 303.086 84.897 304.739 84.897 C 306.445 84.897,306.874 84.728,306.874 84.054 C 306.874 83.745,307.055 83.693,308.128 83.691 C 310.293 83.687,310.830 83.531,310.963 82.867 L 311.079 82.288 319.814 82.288 L 328.550 82.288 328.550 82.865 " stroke="none" fill="#042c64" fill-rule="evenodd"></path><path id="path4" d="M280.007 120.632 C 279.862 121.045,279.856 121.575,279.987 122.265 C 280.093 122.827,280.181 123.325,280.181 123.373 C 280.181 123.604,281.302 123.294,281.421 123.031 C 281.635 122.557,281.607 120.837,281.378 120.408 C 281.043 119.782,280.258 119.910,280.007 120.632 M238.913 121.949 C 238.629 123.078,238.977 125.160,239.591 126.007 C 240.197 126.843,240.209 126.908,240.860 132.765 C 240.971 133.758,241.277 135.429,241.540 136.478 C 241.803 137.526,242.173 139.106,242.362 139.988 C 242.551 140.870,242.783 141.728,242.877 141.895 C 242.971 142.061,243.219 142.877,243.428 143.707 C 243.638 144.537,243.964 145.576,244.153 146.015 C 244.341 146.454,244.655 147.356,244.849 148.018 C 245.043 148.680,245.395 149.538,245.631 149.925 C 245.867 150.311,246.060 150.764,246.060 150.931 C 246.061 151.098,246.324 151.776,246.645 152.437 C 246.967 153.097,247.461 154.134,247.744 154.742 C 248.028 155.349,248.352 155.981,248.465 156.147 C 248.578 156.312,248.855 156.854,249.081 157.351 C 249.731 158.783,252.014 162.801,252.273 162.969 C 252.359 163.025,252.623 163.432,252.859 163.874 C 253.095 164.315,253.490 164.947,253.737 165.278 C 253.984 165.610,254.684 166.545,255.292 167.358 C 255.900 168.170,256.578 169.087,256.799 169.395 C 257.217 169.979,258.544 171.606,259.165 172.297 C 259.362 172.517,259.560 172.879,259.604 173.102 C 259.900 174.601,259.995 174.749,260.067 173.824 C 260.186 172.303,259.974 171.906,257.953 169.875 C 257.594 169.514,257.210 168.979,257.098 168.685 C 256.986 168.391,256.724 168.105,256.517 168.051 C 256.295 167.993,256.090 167.705,256.019 167.349 C 255.952 167.018,255.649 166.506,255.345 166.212 C 255.041 165.919,254.619 165.340,254.409 164.927 C 254.198 164.513,253.953 164.175,253.863 164.175 C 253.773 164.175,253.469 163.687,253.187 163.090 C 252.904 162.494,252.550 161.958,252.398 161.900 C 252.247 161.842,252.010 161.449,251.873 161.028 C 251.736 160.606,251.420 160.055,251.172 159.803 C 250.923 159.551,250.662 159.036,250.591 158.658 C 250.520 158.280,250.253 157.806,249.998 157.605 C 249.719 157.386,249.424 156.812,249.260 156.172 C 249.109 155.585,248.801 154.955,248.574 154.773 C 248.347 154.590,248.038 153.945,247.886 153.337 C 247.734 152.730,247.397 151.978,247.136 151.665 C 246.876 151.353,246.663 150.936,246.663 150.737 C 246.663 150.154,246.069 148.641,245.776 148.477 C 245.627 148.393,245.393 147.714,245.255 146.967 C 245.000 145.590,244.574 144.506,244.288 144.506 C 244.202 144.506,244.014 143.670,243.871 142.649 C 243.718 141.552,243.422 140.423,243.147 139.890 C 242.836 139.285,242.611 138.338,242.465 137.024 C 242.345 135.945,242.062 134.545,241.835 133.913 C 241.530 133.063,241.372 131.903,241.228 129.453 C 240.814 122.409,240.615 121.425,239.610 121.425 C 239.168 121.425,239.016 121.539,238.913 121.949 M118.455 123.220 C 118.495 123.693,118.606 123.915,118.786 123.877 C 119.768 123.670,119.833 123.873,120.229 128.349 C 120.346 129.674,120.574 131.435,120.736 132.263 C 120.898 133.091,121.249 134.987,121.516 136.478 C 121.782 137.968,122.142 139.522,122.314 139.931 C 122.486 140.340,122.774 141.424,122.953 142.340 C 123.132 143.255,123.397 144.195,123.542 144.428 C 123.687 144.660,123.954 145.383,124.134 146.033 C 124.520 147.425,124.867 148.380,125.036 148.520 C 125.103 148.575,125.328 149.194,125.537 149.896 C 125.746 150.598,126.067 151.366,126.251 151.602 C 126.434 151.839,126.744 152.519,126.941 153.115 C 127.137 153.710,127.511 154.513,127.773 154.899 C 128.035 155.285,128.249 155.747,128.249 155.927 C 128.249 156.107,128.466 156.574,128.731 156.964 C 128.997 157.354,129.435 158.121,129.706 158.666 C 130.496 160.257,131.296 161.623,131.797 162.233 C 132.053 162.545,132.263 162.908,132.263 163.040 C 132.263 163.172,132.521 163.594,132.836 163.978 C 133.151 164.362,133.548 164.948,133.718 165.279 C 133.889 165.610,134.218 166.053,134.450 166.263 C 134.682 166.473,134.872 166.750,134.872 166.879 C 134.872 167.007,135.188 167.467,135.574 167.901 C 135.961 168.335,136.277 168.750,136.277 168.823 C 136.277 168.895,136.887 169.682,137.632 170.570 C 139.708 173.045,139.888 173.320,139.910 174.041 L 139.931 174.711 140.141 174.054 C 140.319 173.499,140.291 173.328,139.957 172.950 C 139.740 172.705,139.395 172.233,139.191 171.902 C 138.987 171.570,138.655 171.119,138.454 170.898 C 137.698 170.068,135.535 167.257,135.096 166.533 C 134.844 166.119,134.572 165.780,134.491 165.780 C 134.411 165.780,134.197 165.471,134.017 165.094 C 133.837 164.716,133.369 163.987,132.976 163.473 C 132.584 162.959,132.263 162.424,132.263 162.284 C 132.263 162.144,132.087 161.870,131.873 161.676 C 131.658 161.482,131.319 160.926,131.120 160.441 C 130.921 159.957,130.698 159.560,130.624 159.559 C 130.477 159.558,127.245 153.190,127.245 152.902 C 127.245 152.803,126.929 152.070,126.543 151.274 C 126.157 150.477,125.840 149.690,125.840 149.524 C 125.839 149.358,125.634 148.816,125.383 148.319 C 125.132 147.822,124.761 146.829,124.557 146.111 C 124.354 145.394,123.985 144.265,123.736 143.603 C 123.488 142.940,123.170 141.766,123.030 140.993 C 122.890 140.221,122.663 139.363,122.526 139.087 C 122.389 138.811,122.168 137.908,122.034 137.080 C 121.901 136.252,121.582 134.400,121.325 132.965 C 121.068 131.530,120.713 129.318,120.536 128.048 C 120.359 126.779,120.110 125.048,119.983 124.203 L 119.753 122.665 119.074 122.586 C 118.406 122.508,118.396 122.518,118.455 123.220 " stroke="none" fill="#444454" fill-rule="evenodd"></path></g></svg>