<svg xmlns="http://www.w3.org/2000/svg" width="54" height="54" viewBox="0 0 54 54">
  <g id="Group_10029" data-name="Group 10029" transform="translate(9019 5186)">
    <circle id="Ellipse_63" data-name="Ellipse 63" cx="27" cy="27" r="27" transform="translate(-9019 -5186)" fill="#00306b"/>
    <g id="Group_9956" data-name="Group 9956" transform="translate(-11050.478 -7659)">
      <path id="Path_1" data-name="Path 1" d="M66.181,19.973c.934,0,1.312-.354,1.312-1.1a1.034,1.034,0,0,0-1.184-1.1H64.5v2.2Zm-.09-3.441c.7,0,1.059-.342,1.059-.979a.9.9,0,0,0-.934-1H64.5v1.981Zm2.386.758a2.17,2.17,0,0,1-.02,3.367,3.094,3.094,0,0,1-2.038.554H63.043a.3.3,0,0,1-.3-.3v-7.3a.3.3,0,0,1,.3-.3h3.219a2.629,2.629,0,0,1,1.806.439,1.975,1.975,0,0,1,.756,1.564,1.657,1.657,0,0,1-.918,1.652,1.987,1.987,0,0,1,.571.313M49.441,21.217a3.562,3.562,0,0,1-2.3-.631c-.726-.555-.934-1.144-.934-2.431V13.538a.3.3,0,0,1,.294-.295h1.185a.3.3,0,0,1,.3.295v4.549c0,.829.091,1.058.425,1.333a1.667,1.667,0,0,0,2.077,0c.333-.275.424-.5.424-1.333V13.538a.3.3,0,0,1,.3-.295h1.185a.3.3,0,0,1,.295.295v4.617c0,1.288-.212,1.876-.934,2.431a3.6,3.6,0,0,1-2.307.631m8.277-8.076c2.23,0,3.641,1.593,3.641,4.055s-1.413,4.037-3.663,4.037-3.629-1.582-3.629-4.069c0-2.445,1.4-4.024,3.651-4.024m-.01,6.674c1.176,0,1.91-.918,1.91-2.628S58.877,14.56,57.7,14.56c-1.157,0-1.921.954-1.921,2.594,0,1.745.724,2.661,1.934,2.661" transform="translate(2008.55 2483.048)" fill="#fff"/>
      <path id="Path_2" data-name="Path 2" d="M16.783,14.342v5.553h1.2V14.342a.667.667,0,1,1,1.333,0v5.553h1.2V14.342a.667.667,0,1,1,1.333,0v5.553H23.6a.666.666,0,1,1,0,1.331H21.853v5.55a.667.667,0,1,1-1.333,0v-5.55h-1.2v5.55a.667.667,0,1,1-1.333,0v-5.55h-1.2v5.55a.668.668,0,1,1-1.335,0v-5.55h-1.2v5.55a.667.667,0,1,1-1.333,0v-5.55H11.166a.666.666,0,1,1,0-1.331h1.745V14.342a.667.667,0,1,1,1.333,0v5.553h1.2V14.342a.668.668,0,1,1,1.335,0" transform="translate(2028 2479.348)" fill="#e5001e"/>
    </g>
  </g>
</svg>
