<svg width="99" height="38" viewBox="0 0 99 38" fill="none" xmlns="http://www.w3.org/2000/svg">
<path d="M18.6777 12.7233C20.5519 13.8769 22.0448 15.459 23.1248 17.4697C24.2048 19.4803 24.7766 21.7216 24.7766 24.1608V34.7083C24.7766 35.4005 24.5543 35.9938 24.1095 36.4223C23.6648 36.8838 23.1248 37.1145 22.4578 37.1145C21.7907 37.1145 21.2507 36.8838 20.806 36.4223C20.3613 35.9609 20.1389 35.4005 20.1389 34.7083V32.9614C19.0907 34.3128 17.8201 35.3676 16.3271 36.1257C14.8342 36.8838 13.2142 37.2463 11.4671 37.2463C9.30711 37.2463 7.36945 36.686 5.59062 35.5324C3.84355 34.4117 2.4459 32.8296 1.46118 30.8189C0.508238 28.8413 0 26.6329 0 24.1608C0 21.6887 0.540003 19.4803 1.62001 17.4697C2.70001 15.459 4.19296 13.8769 6.09886 12.7233C8.00475 11.5696 10.1012 11.0093 12.4201 11.0093C14.7071 11.0093 16.8036 11.5696 18.6777 12.7233ZM16.4542 31.8407C17.6613 31.0826 18.6142 29.9949 19.313 28.6765C20.0119 27.325 20.3613 25.8418 20.3613 24.1608C20.3613 22.4798 20.0119 20.9635 19.313 19.6121C18.6142 18.2607 17.6613 17.206 16.4542 16.4149C15.2471 15.6568 13.8813 15.2613 12.3883 15.2613C10.8954 15.2613 9.52946 15.6568 8.3224 16.4149C7.11533 17.173 6.16239 18.2607 5.43179 19.6121C4.73297 20.9635 4.38355 22.4798 4.38355 24.1608C4.38355 25.8418 4.73297 27.325 5.43179 28.6765C6.13062 30.0279 7.08357 31.0826 8.3224 31.8407C9.52946 32.5988 10.8954 32.9944 12.3883 32.9944C13.8813 33.0273 15.2471 32.6318 16.4542 31.8407Z" fill="white"/>
<path d="M63.9293 13.8107C65.5175 15.6236 66.3434 18.1286 66.3434 21.3259V34.8729C66.3434 35.5651 66.1211 36.1584 65.7081 36.5869C65.2952 37.0483 64.7234 37.2791 64.0563 37.2791C63.3893 37.2791 62.8493 37.0483 62.4046 36.5869C61.9599 36.1254 61.7375 35.5651 61.7375 34.8729V21.3259C61.7375 19.4141 61.2928 17.9309 60.3716 16.942C59.4504 15.9532 58.2434 15.4588 56.7187 15.4588C55.1622 15.4588 53.8916 16.0191 52.8751 17.1728C51.8586 18.2934 51.3822 19.7437 51.3822 21.5236V34.8729C51.3822 35.5651 51.1598 36.1584 50.7469 36.5869C50.3339 37.0483 49.7622 37.2791 49.0951 37.2791C48.428 37.2791 47.888 37.0483 47.4433 36.5869C46.9986 36.1254 46.7763 35.5651 46.7763 34.8729V21.3259C46.7763 19.4141 46.3315 17.9309 45.4104 16.942C44.4892 15.9532 43.2821 15.4588 41.7574 15.4588C40.1692 15.4588 38.8668 16.0191 37.8821 17.1728C36.8656 18.2934 36.3891 19.7437 36.3891 21.5236V34.8729C36.3891 35.5651 36.1668 36.1584 35.7538 36.5869C35.3409 37.0483 34.7691 37.2791 34.1021 37.2791C33.435 37.2791 32.895 37.0483 32.4503 36.5869C32.0056 36.1254 31.7832 35.5651 31.7832 34.8729V13.8107C31.7832 13.0856 32.0056 12.4923 32.4503 12.0638C32.895 11.6353 33.435 11.4046 34.1021 11.4046C34.7691 11.4046 35.3091 11.6023 35.7221 12.0308C36.135 12.4593 36.3574 13.0197 36.3891 13.7118C37.1833 12.8878 38.1044 12.2615 39.1844 11.8001C40.2645 11.3386 41.4398 11.1079 42.6786 11.1079C44.2033 11.1079 45.5692 11.4375 46.7763 12.0638C47.9833 12.723 48.9998 13.6459 49.7621 14.8325C50.6516 13.6789 51.7951 12.756 53.1292 12.0967C54.4634 11.4375 55.9881 11.1079 57.6081 11.1079C60.2128 11.1079 62.3093 11.9979 63.9293 13.8107Z" fill="#FDE60C"/>
<path d="M93.2506 12.69C95.0294 13.8437 96.4588 15.4258 97.4753 17.4365C98.4918 19.4471 99 21.6884 99 24.1935C99 26.6656 98.46 28.9069 97.3482 30.9505C96.2365 32.9612 94.7118 34.5433 92.7741 35.7299C90.8364 36.8835 88.6764 37.4768 86.3258 37.4768C83.9752 37.4768 81.847 36.8835 79.9093 35.7299C78.0035 34.5763 76.4787 32.9941 75.367 30.9505C74.2552 28.9399 73.6834 26.6985 73.6834 24.1935V2.43913C73.6834 1.71398 73.9058 1.12068 74.3505 0.659223C74.7952 0.230728 75.367 0 76.034 0C76.7329 0 77.3046 0.230728 77.7176 0.659223C78.1305 1.12068 78.3529 1.68102 78.3529 2.43913V15.294C79.4329 13.9426 80.7352 12.8549 82.2599 12.0967C83.7847 11.3386 85.4364 10.9431 87.2153 10.9431C89.4388 10.9761 91.44 11.5364 93.2506 12.69ZM90.487 31.9723C91.7259 31.1813 92.7106 30.1265 93.4412 28.7421C94.1717 27.3907 94.5212 25.8415 94.5212 24.1605C94.5212 22.4795 94.1717 20.9633 93.4412 19.6119C92.7106 18.2605 91.7259 17.2057 90.487 16.4147C89.2482 15.6236 87.8506 15.261 86.3258 15.261C84.8011 15.261 83.4035 15.6565 82.1646 16.4147C80.9258 17.2057 79.9411 18.2605 79.2423 19.6119C78.5435 20.9633 78.194 22.4795 78.194 24.1605C78.194 25.8415 78.5435 27.3578 79.2423 28.7421C79.9411 30.0935 80.9258 31.1813 82.1646 31.9723C83.4035 32.7634 84.8011 33.126 86.3258 33.126C87.8506 33.126 89.2482 32.7304 90.487 31.9723Z" fill="white"/>
</svg>
