<svg id="Capa_1" enable-background="new 0 0 497 497" height="512" viewBox="0 0 497 497" width="512" xmlns="http://www.w3.org/2000/svg"><g><path d="m434.562 230.403s10.234-13.354 26.365-27.907c8.124-7.33 21.094-3.916 24.634 6.438 13.024 38.095 30.599 117.086-47.041 118.33z" fill="#ffdcce"/><path d="m62.438 230.403s-10.234-13.354-26.365-27.907c-8.124-7.33-21.094-3.916-24.634 6.438-13.024 38.095-30.6 117.086 47.041 118.33z" fill="#ffcabd"/><g><path d="m80.216 196.886c-21.951 32.435-34.773 71.554-34.773 113.668 0 112.146 90.912 182.609 203.058 182.609s203.057-70.463 203.057-182.609c0-42.114-12.822-81.233-34.773-113.668l-168.285-32.065z" fill="#fb8978"/></g><g><path d="m119.003 198.345c-4.646 13.728-7.166 28.428-7.166 43.705 0 75.356 61.307 75.317 136.663 75.317s136.663.039 136.663-75.317c0-15.277-2.521-29.976-7.166-43.705l-129.497-33.524z" fill="#ffdcce"/></g><g><path d="m80.216 196.886c-21.951 32.435-34.773 71.554-34.773 113.668 0 112.146 90.912 182.609 203.058 182.609s203.057-70.463 203.057-182.609c0-42.114-12.822-81.233-34.773-113.668l-168.285-32.065z" fill="#fb8978"/></g><path d="m113.602 348.527c0-78.882 45.81-147.059 112.273-179.396l-145.66 27.754c-21.951 32.435-34.773 71.554-34.773 113.667 0 80.677 47.05 139.779 115.207 166.598-29.345-34.721-47.047-79.601-47.047-128.623z" fill="#f67561"/><g><path d="m119.003 198.345c-4.646 13.728-7.166 28.428-7.166 43.705 0 75.356 61.307 75.317 136.663 75.317s136.663.039 136.663-75.317c0-15.277-2.521-29.976-7.166-43.705l-129.497-33.524z" fill="#ffdcce"/></g><path d="m248.5 343.442c-31.843 39.804-78.762 23.309-103.507 10.237-6.001-3.17-6.429-11.505-.868-15.396 14.184-9.925 22.443-31.658 34.16-42.578 18.203-16.965 49.563-27.271 70.215-8.546 20.652-18.724 52.012-8.418 70.215 8.546 11.717 10.92 19.976 32.653 34.16 42.578 5.561 3.891 5.133 12.226-.868 15.396-24.745 13.072-71.664 29.567-103.507-10.237z" fill="#ff9e8e"/><g><g><path d="m170.303 278.385c-4.143 0-7.5-3.358-7.5-7.5v-15.026c0-4.142 3.357-7.5 7.5-7.5s7.5 3.358 7.5 7.5v15.026c0 4.142-3.357 7.5-7.5 7.5z" fill="#423e4f"/></g><g><path d="m326.697 278.385c-4.143 0-7.5-3.358-7.5-7.5v-15.026c0-4.142 3.357-7.5 7.5-7.5s7.5 3.358 7.5 7.5v15.026c0 4.142-3.358 7.5-7.5 7.5z" fill="#423e4f"/></g></g><path d="m219.705 172.275-100.702 26.07c-4.646 13.729-7.166 28.428-7.166 43.705 0 19.528 4.126 33.982 11.537 44.697 16.109-49.474 51.033-90.445 96.331-114.472z" fill="#ffcabd"/><path d="m182.767 225.304h-24.927c-7.863 0-14.237 6.374-14.237 14.237s6.374 14.237 14.237 14.237h24.927c7.863 0 14.237-6.374 14.237-14.237.001-7.863-6.374-14.237-14.237-14.237z" fill="#fb8978"/><path d="m314.233 225.304h24.927c7.863 0 14.237 6.374 14.237 14.237s-6.374 14.237-14.237 14.237h-24.927c-7.863 0-14.237-6.374-14.237-14.237-.001-7.863 6.374-14.237 14.237-14.237z" fill="#fb8978"/><path d="m295.932 24.925c-12.114-13.425-29.349-21.088-47.432-21.088s-35.318 7.663-47.432 21.088l-105.206 116.595h305.277z" fill="#80dfb5"/><path d="m272.663 8.605c-7.591-3.103-15.782-4.768-24.163-4.768-18.083 0-35.318 7.663-47.432 21.088l-105.206 116.595h82.201c7.149-72.888 49.827-112.298 94.6-132.915z" fill="#36d39a"/><path d="m408.295 131.296h-319.59c-14.022 0-25.389 11.367-25.389 25.389v16.271c0 14.022 11.367 25.389 25.389 25.389h319.591c14.022 0 25.389-11.367 25.389-25.389v-16.271c0-14.022-11.367-25.389-25.39-25.389z" fill="#ffefe0"/><path d="m177.005 163.495c0-11.446.817-22.157 2.325-32.199h-90.625c-14.022 0-25.389 11.367-25.389 25.389v16.271c0 14.022 11.367 25.389 25.389 25.389h91.898c-2.354-11.248-3.598-22.903-3.598-34.85z" fill="#fbe5c8"/></g></svg>