<svg width="159" height="25" viewBox="0 0 159 25" fill="none" xmlns="http://www.w3.org/2000/svg">
<g clip-path="url(#clip0)">
<path d="M12.9919 8.50225C14.2955 9.27317 15.334 10.3304 16.0852 11.6741C16.8364 13.0177 17.2341 14.5155 17.2341 16.1454V23.1939C17.2341 23.6564 17.0795 24.0529 16.7701 24.3393C16.4608 24.6476 16.0852 24.8018 15.6212 24.8018C15.1572 24.8018 14.7816 24.6476 14.4722 24.3393C14.1629 24.0309 14.0083 23.6564 14.0083 23.1939V22.0265C13.2791 22.9296 12.3953 23.6344 11.3568 24.141C10.3184 24.6476 9.19153 24.8899 7.97631 24.8899C6.47385 24.8899 5.12605 24.5155 3.88873 23.7445C2.6735 22.9956 1.70132 21.9384 1.01637 20.5948C0.353521 19.2732 0 17.7974 0 16.1454C0 14.4934 0.375616 13.0177 1.12685 11.6741C1.87808 10.3304 2.91654 9.27317 4.24225 8.50225C5.56795 7.73132 7.02622 7.35687 8.63916 7.35687C10.23 7.35687 11.6883 7.73132 12.9919 8.50225ZM11.4452 21.2776C12.2848 20.771 12.9477 20.0441 13.4338 19.163C13.9199 18.26 14.1629 17.2688 14.1629 16.1454C14.1629 15.0221 13.9199 14.0089 13.4338 13.1058C12.9477 12.2027 12.2848 11.4978 11.4452 10.9692C10.6056 10.4626 9.65553 10.1983 8.61706 10.1983C7.5786 10.1983 6.62851 10.4626 5.7889 10.9692C4.94929 11.4758 4.28644 12.2027 3.77825 13.1058C3.29216 14.0089 3.04912 15.0221 3.04912 16.1454C3.04912 17.2688 3.29216 18.26 3.77825 19.163C4.26434 20.0661 4.92719 20.771 5.7889 21.2776C6.62851 21.7842 7.5786 22.0485 8.61706 22.0485C9.65553 22.0705 10.6056 21.8062 11.4452 21.2776Z" fill="white"/>
<path d="M24.194 24.2511C22.9346 23.8106 21.9624 23.2379 21.2554 22.5111C20.9902 22.2467 20.8577 21.9163 20.8577 21.5199C20.8577 21.0133 21.0565 20.5948 21.4763 20.2864C21.874 20 22.2276 19.8459 22.559 19.8459C22.9788 19.8459 23.3765 20.0441 23.7521 20.4185C24.1498 20.8591 24.7464 21.2556 25.5418 21.5639C26.3372 21.8943 27.1769 22.0485 28.0827 22.0485C29.2759 22.0485 30.1818 21.8503 30.8446 21.4538C31.5075 21.0573 31.8389 20.5067 31.8389 19.8459C31.8389 19.1851 31.5075 18.6564 30.8667 18.2159C30.226 17.7754 29.1212 17.423 27.5967 17.1146C23.5975 16.3437 21.5868 14.6696 21.5868 12.1146C21.5868 11.0793 21.8961 10.1983 22.4927 9.49344C23.0893 8.76656 23.8847 8.23793 24.8569 7.88551C25.8291 7.53308 26.8675 7.35687 27.9723 7.35687C29.3201 7.35687 30.5353 7.57714 31.618 8.01767C32.7006 8.45819 33.5402 9.07493 34.1589 9.84586C34.424 10.1763 34.5566 10.5287 34.5566 10.8591C34.5566 11.2115 34.3798 11.5419 34.0263 11.8503C33.8054 12.0265 33.496 12.0926 33.1425 12.0926C32.5901 12.0926 32.104 11.8943 31.6842 11.4978C31.154 11.0133 30.6016 10.6608 30.0271 10.4626C29.4526 10.2644 28.7456 10.1542 27.906 10.1542C26.9559 10.1542 26.1605 10.3084 25.5418 10.6388C24.9232 10.9692 24.6138 11.4318 24.6138 12.0044C24.6138 12.423 24.7243 12.7754 24.9232 13.0617C25.122 13.3481 25.5197 13.6124 26.1163 13.8547C26.6908 14.097 27.5525 14.3393 28.6572 14.5595C30.933 15.0221 32.546 15.6608 33.496 16.4978C34.4461 17.3128 34.9101 18.3921 34.9101 19.6917C34.9101 20.6608 34.645 21.5419 34.1368 22.3348C33.6065 23.1278 32.8553 23.7445 31.8389 24.2071C30.8225 24.6697 29.6073 24.8899 28.1932 24.8899C26.7791 24.9119 25.4313 24.6917 24.194 24.2511Z" fill="white"/>
<path d="M52.1885 23.4582C52.1885 23.9207 52.0118 24.3172 51.6362 24.6256C51.3268 24.8679 50.9954 25 50.6419 25C50.1779 25 49.8023 24.8018 49.515 24.4273L43.5715 17.0044L42.0027 18.3921V23.2379C42.0027 23.7005 41.8702 24.0749 41.5829 24.3613C41.2957 24.6476 40.9422 24.7798 40.4782 24.7798C40.0142 24.7798 39.6607 24.6476 39.3734 24.3613C39.0862 24.0749 38.9536 23.7005 38.9536 23.2379V1.62999C38.9536 1.16743 39.0862 0.792981 39.3734 0.506637C39.6607 0.220293 40.0142 0.0881348 40.4782 0.0881348C40.9422 0.0881348 41.2957 0.220293 41.5829 0.506637C41.8702 0.792981 42.0027 1.16743 42.0027 1.62999V14.4934L49.6034 7.62117C49.8686 7.35686 50.2 7.20267 50.5756 7.20267C51.0175 7.20267 51.371 7.37888 51.6362 7.70928C51.9013 7.9736 52.0339 8.30399 52.0339 8.70047C52.0339 9.141 51.8571 9.49342 51.5257 9.77977L45.781 14.956L51.835 22.489C52.0781 22.7533 52.1885 23.0617 52.1885 23.4582Z" fill="white"/>
<path d="M80.2762 9.22902C81.3809 10.4405 81.9554 12.1145 81.9554 14.251V23.3039C81.9554 23.7665 81.8008 24.1629 81.5135 24.4493C81.2263 24.7577 80.8286 24.9118 80.3646 24.9118C79.9006 24.9118 79.525 24.7577 79.2156 24.4493C78.9063 24.1409 78.7516 23.7665 78.7516 23.3039V14.251C78.7516 12.9735 78.4423 11.9823 77.8016 11.3215C77.1608 10.6607 76.3212 10.3303 75.2606 10.3303C74.178 10.3303 73.2942 10.7048 72.5871 11.4757C71.8801 12.2246 71.5487 13.1938 71.5487 14.3832V23.3039C71.5487 23.7665 71.394 24.1629 71.1068 24.4493C70.8195 24.7577 70.4218 24.9118 69.9578 24.9118C69.4938 24.9118 69.1182 24.7577 68.8089 24.4493C68.4995 24.1409 68.3449 23.7665 68.3449 23.3039V14.251C68.3449 12.9735 68.0355 11.9823 67.3948 11.3215C66.754 10.6607 65.9144 10.3303 64.8539 10.3303C63.7491 10.3303 62.8432 10.7048 62.1583 11.4757C61.4512 12.2246 61.1198 13.1938 61.1198 14.3832V23.3039C61.1198 23.7665 60.9651 24.1629 60.6779 24.4493C60.3907 24.7577 59.9929 24.9118 59.529 24.9118C59.065 24.9118 58.6893 24.7577 58.38 24.4493C58.0707 24.1409 57.916 23.7665 57.916 23.3039V9.22902C57.916 8.74444 58.0707 8.34796 58.38 8.06162C58.6893 7.77527 59.065 7.62109 59.529 7.62109C59.9929 7.62109 60.3686 7.75325 60.6558 8.03959C60.943 8.32594 61.0977 8.70038 61.1198 9.16294C61.6722 8.61228 62.3129 8.19378 63.0642 7.88541C63.8154 7.57704 64.6329 7.42285 65.4946 7.42285C66.5552 7.42285 67.5053 7.64312 68.3449 8.06162C69.1845 8.50215 69.8915 9.11889 70.4218 9.91184C71.0405 9.14091 71.8359 8.52417 72.7639 8.08364C73.6919 7.64312 74.7524 7.42285 75.8793 7.42285C77.6911 7.42285 79.1493 8.01757 80.2762 9.22902Z" fill="#FDE60C"/>
<path d="M102.172 16.9603C101.907 17.2246 101.554 17.3568 101.134 17.3568H89.2688C89.4898 18.8326 90.1527 20.022 91.2574 20.9251C92.3622 21.8281 93.6879 22.2907 95.2787 22.2907C95.8974 22.2907 96.5602 22.1806 97.2231 21.9383C97.908 21.696 98.4604 21.4317 98.9023 21.0792C99.1895 20.837 99.5431 20.7268 99.9408 20.7268C100.338 20.7268 100.648 20.837 100.869 21.0352C101.244 21.3436 101.421 21.718 101.421 22.1145C101.421 22.4889 101.244 22.8193 100.913 23.0616C100.206 23.6343 99.3221 24.0969 98.2615 24.4493C97.201 24.8017 96.2067 24.9779 95.2566 24.9779C93.5553 24.9779 92.0086 24.6035 90.6608 23.8546C89.313 23.1057 88.2525 22.0704 87.4791 20.7489C86.7279 19.4273 86.3302 17.9074 86.3302 16.2334C86.3302 14.5374 86.6837 13.0396 87.4129 11.696C88.142 10.3524 89.1363 9.31713 90.4178 8.56823C91.6993 7.81934 93.1576 7.44489 94.7705 7.44489C96.3835 7.44489 97.7534 7.79731 98.9244 8.52418C100.095 9.25105 100.979 10.2422 101.62 11.5198C102.239 12.7973 102.548 14.2731 102.548 15.9471C102.57 16.3656 102.438 16.696 102.172 16.9603ZM91.0806 11.4317C90.1306 12.2687 89.534 13.414 89.2909 14.8237H99.6977C99.521 13.414 98.9907 12.2907 98.129 11.4317C97.2673 10.5947 96.1625 10.1762 94.7926 10.1762C93.2681 10.1762 92.0307 10.5947 91.0806 11.4317Z" fill="#FDE60C"/>
<path d="M121.483 8.48018C122.72 9.2511 123.714 10.3084 124.421 11.652C125.128 12.9956 125.482 14.4934 125.482 16.1674C125.482 17.8194 125.106 19.3172 124.333 20.6828C123.56 22.0264 122.499 23.0837 121.151 23.8767C119.803 24.6476 118.301 25.0441 116.666 25.0441C115.031 25.0441 113.55 24.6476 112.203 23.8767C110.877 23.1057 109.816 22.0485 109.043 20.6828C108.27 19.3392 107.872 17.8414 107.872 16.1674V1.62996C107.872 1.14537 108.027 0.748899 108.336 0.440529C108.645 0.154185 109.043 0 109.507 0C109.993 0 110.391 0.154185 110.678 0.440529C110.965 0.748899 111.12 1.12335 111.12 1.62996V10.2203C111.871 9.31718 112.777 8.59031 113.838 8.0837C114.898 7.57709 116.047 7.31278 117.285 7.31278C118.831 7.3348 120.223 7.70925 121.483 8.48018ZM119.56 21.3656C120.422 20.837 121.107 20.1322 121.615 19.2071C122.123 18.304 122.366 17.2687 122.366 16.1454C122.366 15.022 122.123 14.0088 121.615 13.1057C121.107 12.2026 120.422 11.4978 119.56 10.9692C118.699 10.4405 117.726 10.1982 116.666 10.1982C115.605 10.1982 114.633 10.4626 113.771 10.9692C112.91 11.4978 112.225 12.2026 111.739 13.1057C111.253 14.0088 111.01 15.022 111.01 16.1454C111.01 17.2687 111.253 18.2819 111.739 19.2071C112.225 20.1101 112.91 20.837 113.771 21.3656C114.633 21.8943 115.605 22.1366 116.666 22.1366C117.726 22.1366 118.699 21.8722 119.56 21.3656Z" fill="white"/>
<path d="M145.61 16.8943C145.323 17.1586 144.992 17.2908 144.55 17.2908H132.42C132.663 18.7666 133.325 19.978 134.452 20.8811C135.579 21.7842 136.949 22.2467 138.562 22.2467C139.203 22.2467 139.866 22.1366 140.551 21.8943C141.236 21.652 141.81 21.3657 142.252 21.0353C142.539 20.793 142.893 20.6829 143.312 20.6829C143.71 20.6829 144.042 20.793 144.263 20.9912C144.638 21.2996 144.837 21.674 144.837 22.0705C144.837 22.445 144.66 22.7754 144.329 23.0177C143.6 23.5903 142.694 24.0529 141.633 24.4274C140.551 24.7798 139.534 24.978 138.54 24.978C136.794 24.978 135.226 24.6036 133.834 23.8547C132.442 23.1058 131.359 22.0485 130.586 20.7269C129.812 19.3833 129.415 17.8635 129.415 16.1674C129.415 14.4714 129.79 12.9516 130.519 11.608C131.249 10.2644 132.287 9.20709 133.591 8.45819C134.894 7.70929 136.397 7.33484 138.054 7.33484C139.689 7.33484 141.103 7.68726 142.296 8.41413C143.489 9.14101 144.395 10.1542 145.036 11.4318C145.677 12.7313 145.986 14.2071 145.986 15.8811C146.03 16.2996 145.875 16.63 145.61 16.8943ZM134.276 11.3436C133.303 12.2027 132.685 13.326 132.442 14.7577H143.092C142.893 13.326 142.362 12.2027 141.501 11.3436C140.617 10.4846 139.49 10.0661 138.076 10.0661C136.507 10.0661 135.248 10.4846 134.276 11.3436Z" fill="white"/>
<path d="M158.602 22.1366C158.867 22.445 159 22.8194 159 23.282C159 23.7445 158.823 24.141 158.47 24.4273C158.116 24.7357 157.674 24.8679 157.122 24.8679H156.547C155.509 24.8679 154.559 24.6035 153.697 24.0529C152.836 23.5022 152.151 22.7754 151.664 21.8502C151.178 20.9251 150.935 19.8679 150.935 18.7005V10.837H149.433C148.991 10.837 148.615 10.7049 148.35 10.4626C148.063 10.1983 147.93 9.88989 147.93 9.51544C147.93 9.09694 148.063 8.74451 148.35 8.50222C148.637 8.23791 148.991 8.12777 149.433 8.12777H150.913V3.50222C150.913 3.03967 151.068 2.64319 151.355 2.35685C151.642 2.07051 152.04 1.91632 152.504 1.91632C152.968 1.91632 153.366 2.07051 153.653 2.35685C153.94 2.66522 154.095 3.03967 154.095 3.50222V8.08372H156.813C157.255 8.08372 157.63 8.21588 157.895 8.45817C158.183 8.72249 158.315 9.05288 158.315 9.47139C158.315 9.84584 158.183 10.1762 157.895 10.4185C157.608 10.6828 157.255 10.793 156.813 10.793H154.095V18.6564C154.095 19.5154 154.338 20.2203 154.802 20.793C155.266 21.3657 155.84 21.652 156.525 21.652H157.608C158.006 21.6961 158.337 21.8282 158.602 22.1366Z" fill="white"/>
</g>
<defs>
<clipPath id="clip0">
<rect width="159" height="25" fill="white"/>
</clipPath>
</defs>
</svg>
