<?xml version="1.0" encoding="iso-8859-1"?>
<!-- Generator: Adobe Illustrator 19.0.0, SVG Export Plug-In . SVG Version: 6.00 Build 0)  -->
<svg version="1.1" id="Capa_1" xmlns="http://www.w3.org/2000/svg" xmlns:xlink="http://www.w3.org/1999/xlink" x="0px" y="0px"
	 viewBox="0 0 480 480" style="enable-background:new 0 0 480 480;" xml:space="preserve">
<g>
	<g>
		<path d="M344,0H136c-22.08,0.026-39.974,17.92-40,40v400c0.026,22.08,17.92,39.974,40,40h208c22.08-0.026,39.974-17.92,40-40V40
			C383.974,17.92,366.08,0.026,344,0z M368,440c0,13.255-10.745,24-24,24H136c-13.255,0-24-10.745-24-24v-8h256V440z M368,416H112
			V64h256V416z M368,48H112v-8c0-13.255,10.745-24,24-24h208c13.255,0,24,10.745,24,24V48z"/>
	</g>
</g>
<g>
	<g>
		<path d="M240,176c-61.856,0-112,50.144-112,112s50.144,112,112,112s112-50.144,112-112C351.934,226.172,301.828,176.066,240,176z
			 M335.592,280h-16c-1.565-15.631-7.719-30.451-17.688-42.592l11.336-11.336C326.137,241.274,333.953,260.132,335.592,280z
			 M248,192.408c19.868,1.639,38.726,9.455,53.928,22.352l-11.336,11.336c-12.141-9.969-26.961-16.123-42.592-17.688V192.408z
			 M232,192.408v16c-15.631,1.565-30.451,7.719-42.592,17.688l-11.336-11.336C193.274,201.863,212.132,194.047,232,192.408z
			 M166.76,226.072l11.336,11.336c-9.969,12.141-16.123,26.961-17.688,42.592h-16C146.047,260.132,153.863,241.274,166.76,226.072z
			 M144.408,296h16c1.565,15.631,7.719,30.451,17.688,42.592l-11.336,11.336C153.863,334.726,146.047,315.868,144.408,296z
			 M232,383.592c-19.868-1.639-38.726-9.455-53.928-22.352l11.336-11.336c12.141,9.969,26.961,16.123,42.592,17.688V383.592z
			 M176,288c0-35.346,28.654-64,64-64c35.346,0,64,28.654,64,64c-0.04,35.33-28.67,63.96-64,64C204.654,352,176,323.346,176,288z
			 M248,383.592v-16c15.631-1.565,30.451-7.719,42.592-17.688l11.336,11.336C286.726,374.137,267.868,381.953,248,383.592z
			 M313.24,349.928l-11.336-11.336c9.969-12.141,16.123-26.961,17.688-42.592h16C333.953,315.868,326.137,334.726,313.24,349.928z"
			/>
	</g>
</g>
<g>
	<g>
		<path d="M240,280c-4.418,0-8-3.582-8-8s3.582-8,8-8s8,3.582,8,8h16c-0.042-10.134-6.445-19.15-16-22.528V240h-16v9.472
			c-12.473,4.393-19.023,18.066-14.629,30.539c3.38,9.596,12.455,16.009,22.629,15.989c4.418,0,8,3.582,8,8s-3.582,8-8,8
			s-8-3.582-8-8h-16c0.042,10.134,6.445,19.15,16,22.528V336h16v-9.472c12.473-4.393,19.023-18.066,14.63-30.539
			C259.249,286.393,250.174,279.981,240,280z"/>
	</g>
</g>
<g>
	<g>
		<path d="M303.998,80.002c-2.121,0-4.154,0.843-5.654,2.342L272,108.688l-26.344-26.344c-3.124-3.123-8.188-3.123-11.312,0
			L208,108.688l-26.344-26.344c-3.125-3.124-8.19-3.123-11.314,0.002C168.843,83.846,168,85.879,168,88v64c0,4.418,3.582,8,8,8h128
			c4.418,0,8-3.582,8-8V88C311.999,83.582,308.417,80.001,303.998,80.002z M296,144H184v-36.688l18.344,18.344
			c3.124,3.123,8.188,3.123,11.312,0L240,99.312l26.344,26.344c3.124,3.123,8.188,3.123,11.312,0L296,107.312V144z"/>
	</g>
</g>
<g>
</g>
<g>
</g>
<g>
</g>
<g>
</g>
<g>
</g>
<g>
</g>
<g>
</g>
<g>
</g>
<g>
</g>
<g>
</g>
<g>
</g>
<g>
</g>
<g>
</g>
<g>
</g>
<g>
</g>
</svg>
