<?xml version="1.0" encoding="iso-8859-1"?>
<!-- Generator: Adobe Illustrator 19.0.0, SVG Export Plug-In . SVG Version: 6.00 Build 0)  -->
<svg version="1.1" id="Capa_1" xmlns="http://www.w3.org/2000/svg" xmlns:xlink="http://www.w3.org/1999/xlink" x="0px" y="0px"
	 viewBox="0 0 512 512" style="enable-background:new 0 0 512 512;" xml:space="preserve">
<g>
	<g>
		<g>
			<path d="M494.948,128.322c-4.03-7.853-10.87-14.277-19.342-17.102L421.09,93.523c0,0,0.014-59.461,0.014-59.509
				C421.109,15.518,405.553,0,387.099,0H135.875c-18.747,0-34.001,15.251-34.005,33.997l-0.016,67.707
				c0,0-65.843,21.373-65.902,21.392c-17.427,5.657-26.867,25.285-21.257,42.551c0,0,102.484,322.659,102.536,322.823
				c5.467,17.213,24.919,27.614,42.21,22l96.884-31.449l89.758,30.54c0.044,0.015,0.089,0.03,0.134,0.045
				c17.416,5.742,37.072-4.216,42.789-21.813c0,0,108.349-333.555,108.42-333.773C500.199,145.472,498.981,136.181,494.948,128.322z
				 M369.979,481.613c-2.371,7.301-10.227,11.323-17.532,8.984l-64.343-21.892l96.213-31.231L369.979,481.613z M386.223,415.826
				l-232.96,75.62c-7.002,2.271-14.631-1.834-16.99-9.092c0,0-102.383-322.339-102.536-322.822
				c-2.178-6.858,1.382-15.133,8.389-17.408l232.959-75.621c1.309-0.425,2.639-0.626,3.955-0.626c5.716,0,11.119,3.819,13.035,9.72
				c0,0,102.366,322.287,102.536,322.822C396.703,405.003,393.127,413.585,386.223,415.826z M401.025,352.531L311.12,69.478
				c-5.785-17.809-24.722-27.679-42.209-22L121.857,95.211l0.015-61.208c0.001-7.719,6.283-13.999,14.002-13.999
				c0,0,250.765,0,251.224,0c7.578,0,14.005,6.451,14.003,14.005L401.025,352.531z M478.398,147.841l-57.364,176.596l0.051-209.885
				c0,0,48.269,15.668,48.345,15.693C476.611,132.576,480.726,140.676,478.398,147.841z"/>
			<path d="M251.964,308.434c16.929-5.656,29.46-28.462,21.129-53.398c-14.231-42.6-80.083-59.466-82.88-60.163
				c-3.768-0.94-7.739,0.387-10.187,3.404c-1.815,2.237-44.307,55.302-30.077,97.901c5.548,16.608,21.006,31.487,39.474,31.486
				c9.261-0.001,18.725-4.516,25.138-11.385l8.031,24.042l-14.189,4.741c-5.239,1.75-8.067,7.416-6.317,12.655
				c1.71,5.121,7.547,8.023,12.656,6.318l47.349-15.819c5.239-1.75,8.067-7.417,6.317-12.656c-1.75-5.24-7.418-8.068-12.656-6.317
				l-14.188,4.741l-8.031-24.043C238.988,310.901,245.168,310.704,251.964,308.434z M223.632,281.911
				c-2.584-3.442-7.084-4.844-11.167-3.479c-4.084,1.364-6.835,5.189-6.833,9.493c0.001,0.148-0.138,14.942-13.038,19.253
				c-10.703,3.575-20.733-8.548-23.671-17.34c-7.937-23.76,11.072-57.522,22.71-73.77c19.074,5.994,54.551,21.549,62.488,45.305
				c4.701,14.073-1.779,25.844-8.495,28.087C232.984,293.686,223.96,282.331,223.632,281.911z"/>
			<path d="M97.7,149.777c-16.526,0-29.97,13.445-29.97,29.972S81.174,209.72,97.7,209.72c16.526,0,29.971-13.445,29.971-29.972
				S114.226,149.777,97.7,149.777z M97.7,189.717c-5.496,0-9.967-4.472-9.967-9.969c0-5.497,4.471-9.969,9.967-9.969
				s9.968,4.472,9.968,9.969C107.667,185.246,103.196,189.717,97.7,189.717z"/>
			<path d="M332.334,349.48c-16.526,0-29.97,13.445-29.97,29.972c0,16.527,13.444,29.972,29.97,29.972s29.971-13.445,29.971-29.972
				C362.305,362.925,348.859,349.48,332.334,349.48z M332.334,389.42c-5.496,0-9.967-4.472-9.967-9.969s4.471-9.969,9.967-9.969
				s9.968,4.472,9.968,9.969C342.301,384.948,337.83,389.42,332.334,389.42z"/>
			<path d="M369.281,42.793c-5.521,0-10.002,4.481-10.002,10.002c0,5.51,4.481,10.002,10.002,10.002
				c5.511,0,10.002-4.491,10.002-10.002C379.282,47.273,374.792,42.793,369.281,42.793z"/>
			<path d="M369.281,82.799c-5.521,0-10.002,4.491-10.002,10.002v48.007c0,5.51,4.481,10.002,10.002,10.002
				c5.511,0,10.002-4.491,10.002-10.002V92.8C379.282,87.289,374.792,82.799,369.281,82.799z"/>
		</g>
	</g>
</g>
<g>
</g>
<g>
</g>
<g>
</g>
<g>
</g>
<g>
</g>
<g>
</g>
<g>
</g>
<g>
</g>
<g>
</g>
<g>
</g>
<g>
</g>
<g>
</g>
<g>
</g>
<g>
</g>
<g>
</g>
</svg>
