<?xml version="1.0" encoding="iso-8859-1"?>
<!-- Generator: Adobe Illustrator 19.0.0, SVG Export Plug-In . SVG Version: 6.00 Build 0)  -->
<svg version="1.1" id="Capa_1" xmlns="http://www.w3.org/2000/svg" xmlns:xlink="http://www.w3.org/1999/xlink" x="0px" y="0px"
	 viewBox="0 0 188.185 188.185" style="enable-background:new 0 0 188.185 188.185;" xml:space="preserve">
<g>
	<g>
		<path d="M98.985,41.614c1.884,0,3.413-1.529,3.413-3.413V12.145c0-5.629-4.579-10.211-10.209-10.211h-81.98
			C4.581,1.934,0,6.514,0,12.145v163.898c0,5.629,4.579,10.209,10.209,10.209h81.98c5.63,0,10.211-4.581,10.209-10.209v-75.551
			c0-1.884-1.529-3.413-3.413-3.413s-3.413,1.529-3.413,3.413v75.551c0,1.864-1.517,3.383-3.383,3.383h-81.98
			c-1.865,0-3.383-1.517-3.383-3.383V12.145c0-1.865,1.517-3.384,3.383-3.384h81.98c1.865,0,3.383,1.517,3.383,3.384V38.2
			C95.572,40.084,97.101,41.614,98.985,41.614z"/>
	</g>
</g>
<g>
	<g>
		<path d="M88.747,39.41c1.884,0,3.413-1.529,3.413-3.413V15.585c0-1.884-1.529-3.413-3.413-3.413H13.653
			c-1.884,0-3.413,1.529-3.413,3.413v133.12c0,1.884,1.529,3.413,3.413,3.413h75.093c1.884,0,3.413-1.529,3.413-3.413v-46.932
			c0-1.884-1.529-3.413-3.413-3.413s-3.413,1.529-3.413,3.413v43.518H17.067V18.999h68.267v16.998
			C85.333,37.881,86.862,39.41,88.747,39.41z"/>
	</g>
</g>
<g>
	<g>
		<path d="M51.2,155.532c-5.647,0-10.24,4.593-10.24,10.24c0,5.647,4.593,10.24,10.24,10.24c5.646,0,10.24-4.593,10.24-10.24
			C61.44,160.124,56.847,155.532,51.2,155.532z M51.2,169.185c-1.882,0-3.413-1.531-3.413-3.413s1.531-3.413,3.413-3.413
			c1.883,0,3.413,1.531,3.413,3.413S53.082,169.185,51.2,169.185z"/>
	</g>
</g>
<g>
	<g>
		<path d="M184.083,82.562c-0.717-2.654-1.401-5.243-2.068-7.762c-6.182-23.333-10.646-40.192-22.473-43.694
			c-4.668-1.382-14.384-4.26-24.863,1.958c-8.24,4.886-35.84,4.886-44.081,0c-10.479-6.217-20.195-3.342-24.888-1.952
			c-11.802,3.495-16.266,20.354-22.448,43.687c-0.666,2.519-1.352,5.108-2.068,7.762c-5.495,20.342-5.468,39.685,0.07,49.277
			c1.966,3.405,4.547,5.552,7.67,6.381c0.643,0.171,1.287,0.253,1.93,0.253c7.434,0,14.956-10.89,22.243-21.448
			c3.115-4.509,6.333-9.172,8.074-10.522c1.208-0.937,5.832-3.084,22.596-2.865l20.871-0.015c14.28,0.065,18.355,2.036,19.444,2.881
			c1.741,1.35,4.96,6.013,8.074,10.522c7.926,11.474,16.135,23.359,24.178,21.197c3.123-0.829,5.704-2.976,7.67-6.381
			C189.551,122.247,189.578,102.903,184.083,82.562z M178.104,128.42c-1.026,1.775-2.207,2.852-3.511,3.198
			c-3.403,0.84-12.802-12.679-16.807-18.478c-3.874-5.61-6.932-10.04-9.506-12.037c-2.341-1.816-7.335-4.239-23.617-4.313
			l-20.84,0.015c-14.075-0.183-22.851,1.215-26.825,4.299c-2.574,1.997-5.632,6.427-9.506,12.037
			c-4.007,5.801-13.375,19.384-16.807,18.478c-1.306-0.346-2.485-1.423-3.511-3.198c-3.831-6.637-5.13-22.842,0.608-44.083
			c0.72-2.662,1.41-5.265,2.079-7.793c5.402-20.383,9.665-36.483,17.813-38.897c2.166-0.642,5.337-1.58,9.035-1.58
			c3.18,0,6.748,0.693,10.407,2.862c10.257,6.086,40.791,6.086,51.048,0c7.916-4.693,15.415-2.476,19.468-1.275
			c8.122,2.405,12.387,18.505,17.787,38.888c0.669,2.528,1.359,5.129,2.079,7.793C183.235,105.578,181.936,121.782,178.104,128.42z"
			/>
	</g>
</g>
<g>
	<g>
		<rect x="75.098" y="53.132" width="6.827" height="27.307"/>
	</g>
</g>
<g>
	<g>
		<rect x="64.858" y="63.372" width="27.307" height="6.827"/>
	</g>
</g>
<g>
	<g>
		<path d="M145.067,53.132c-8.469,0-15.36,6.89-15.36,15.36c0,8.47,6.891,15.36,15.36,15.36c8.468,0,15.36-6.89,15.36-15.36
			C160.427,60.022,153.535,53.132,145.067,53.132z M145.067,77.025c-4.705,0-8.533-3.828-8.533-8.533
			c0-4.705,3.828-8.533,8.533-8.533c4.704,0,8.533,3.828,8.533,8.533C153.6,73.197,149.772,77.025,145.067,77.025z"/>
	</g>
</g>
<g>
</g>
<g>
</g>
<g>
</g>
<g>
</g>
<g>
</g>
<g>
</g>
<g>
</g>
<g>
</g>
<g>
</g>
<g>
</g>
<g>
</g>
<g>
</g>
<g>
</g>
<g>
</g>
<g>
</g>
</svg>
