<svg height="512pt" viewBox="0 -5 512.00057 512" width="512pt" xmlns="http://www.w3.org/2000/svg"><path d="m497.164062 266.03125-33.582031-38.707031c-6.703125-7.726563-9.011719-18.203125-6.175781-28.03125l13.445312-46.566407c11.390626-39.445312-18.949218-78.613281-60.214843-77.144531l-51.078125 1.828125c-10.011719.359375-19.457032-4.242187-25.347656-12.3125l-29.410157-40.28125c-24.164062-33.089844-73.441406-33.085937-97.597656 0l-29.414063 40.28125c-5.886718 8.066406-15.355468 12.664063-25.34375 12.3125l-51.078124-1.832031c-41.128907-1.484375-71.636719 37.597656-60.214844 77.148437l13.441406 46.5625c2.839844 9.828126.53125 20.308594-6.171875 28.035157l-33.582031 38.703125c-27.320313 31.488281-15.363282 80.234375 23.144531 95.679687l44.535156 17.863281c9.625 3.863282 16.6875 12.605469 18.4375 22.824219l8.464844 49.488281c7.050781 41.207032 52.945313 62.988282 89.332031 42.390626l42.4375-24.027344c9.132813-5.171875 20.484375-5.171875 29.617188 0l42.441406 24.027344c36.25 20.523437 82.25-1.011719 89.328125-42.390626l8.46875-49.488281c1.75-10.21875 8.8125-18.960937 18.433594-22.824219l44.535156-17.863281c38.546875-15.457031 50.445313-64.21875 23.148437-95.675781zm-34.453124 67.492188-44.535157 17.863281c-19.347656 7.761719-33.550781 25.34375-37.0625 45.886719l-8.46875 49.488281c-3.519531 20.554687-26.296875 31.351562-44.429687 21.085937l-42.441406-24.03125c-18.363282-10.394531-41.179688-10.398437-59.542969 0l-42.441407 24.03125c-18.148437 10.269532-40.914062-.546875-44.429687-21.085937l-8.46875-49.484375c-3.515625-20.546875-17.714844-38.128906-37.0625-45.890625l-44.535156-17.863281c-19.246094-7.722657-25.035157-32.003907-11.511719-47.589844l33.582031-38.703125c13.476563-15.535157 18.117188-36.605469 12.410157-56.363281l-13.445313-46.566407c-5.660156-19.601562 9.390625-39.074219 29.949219-38.371093l51.078125 1.832031c20.0625.726562 39.121093-8.535157 50.964843-24.753907l29.410157-40.277343c12.019531-16.460938 36.527343-16.460938 48.542969 0l29.410156 40.277343c11.84375 16.21875 30.898437 25.496094 50.964844 24.753907l51.078124-1.832031c20.519532-.71875 35.617188 18.746093 29.949219 38.371093l-13.445312 46.566407c-5.707031 19.757812-1.066407 40.828124 12.414062 56.359374l33.582031 38.707032c13.53125 15.597656 7.714844 39.875-11.515624 47.589844zm0 0"/><path d="m167.214844 245.59375h56.789062c6.988282 0 12.65625-5.667969 12.65625-12.65625s-5.667968-12.652344-12.65625-12.652344h-43.742187c.933593-3.703125 3.480469-6.898437 7.007812-8.578125.082031-.039062 27.546875-13.136719 27.628907-13.179687 36.851562-18.0625 24.128906-74.230469-17.105469-74.230469-23.839844 0-43.230469 19.394531-43.230469 43.234375 0 6.988281 5.664062 12.652344 12.652344 12.652344 6.988281 0 12.65625-5.664063 12.65625-12.652344 0-9.886719 8.039062-17.925781 17.921875-17.925781 14.441406 0 18.777343 19.867187 6.019531 26.175781l-27.4375 13.082031c-13.253906 6.316407-21.816406 19.886719-21.816406 34.570313v9.503906c0 6.992188 5.667968 12.65625 12.65625 12.65625zm0 0"/><path d="m266.671875 214.53125h40.246094v18.410156c0 6.988282 5.667969 12.652344 12.65625 12.652344s12.652343-5.664062 12.652343-12.652344v-18.410156h1.425782c6.988281 0 12.65625-5.667969 12.65625-12.65625s-5.667969-12.65625-12.65625-12.65625h-1.425782v-7.332031c0-6.988281-5.664062-12.65625-12.652343-12.65625s-12.65625 5.667969-12.65625 12.65625v7.332031h-18.636719l25.859375-46.074219c3.421875-6.09375 1.253906-13.808593-4.84375-17.226562-6.09375-3.421875-13.808594-1.253907-17.226563 4.839843l-36.433593 64.921876c-4.730469 8.425781 1.375 18.851562 11.035156 18.851562zm0 0"/><path d="m380.015625 268.132812h-248.027344c-8.386719 0-15.183593 6.800782-15.183593 15.183594 0 8.386719 6.796874 15.1875 15.183593 15.1875h248.027344c8.386719 0 15.183594-6.800781 15.183594-15.1875 0-8.382812-6.796875-15.183594-15.183594-15.183594zm0 0"/><path d="m273.667969 321.449219h-46.46875c-6.988281 0-12.65625 5.667969-12.65625 12.65625s5.667969 12.652343 12.65625 12.652343h29.792969l-17.089844 61.136719c-1.882813 6.730469 2.050781 13.710938 8.78125 15.59375 6.703125 1.878907 13.707031-2.027343 15.59375-8.78125l21.578125-77.195312c2.253906-8.070313-3.820313-16.0625-12.1875-16.0625zm0 0"/></svg>