<svg height="512pt" viewBox="-43 0 512 512" width="512pt" xmlns="http://www.w3.org/2000/svg"><path d="m368 512h-309.332031c-32.363281 0-58.667969-26.304688-58.667969-58.667969v-394.664062c0-32.363281 26.304688-58.667969 58.667969-58.667969h309.332031c32.363281 0 58.667969 26.304688 58.667969 58.667969v394.664062c0 32.363281-26.304688 58.667969-58.667969 58.667969zm-309.332031-480c-14.699219 0-26.667969 11.96875-26.667969 26.667969v394.664062c0 14.699219 11.96875 26.667969 26.667969 26.667969h309.332031c14.699219 0 26.667969-11.96875 26.667969-26.667969v-394.664062c0-14.699219-11.96875-26.667969-26.667969-26.667969zm0 0"/><path d="m410.667969 384h-394.667969c-8.832031 0-16-7.167969-16-16s7.167969-16 16-16h394.667969c8.832031 0 16 7.167969 16 16s-7.167969 16-16 16zm0 0"/><path d="m213.332031 234.667969c-35.285156 0-64-28.714844-64-64 0-35.285157 28.714844-64 64-64 35.285157 0 64 28.714843 64 64 0 35.285156-28.714843 64-64 64zm0-96c-17.640625 0-32 14.355469-32 32 0 17.640625 14.359375 32 32 32 17.644531 0 32-14.359375 32-32 0-17.644531-14.355469-32-32-32zm0 0"/><path d="m304 384h-181.332031c-8.832031 0-16-7.167969-16-16v-42.667969c0-40.167969 44.863281-69.332031 106.664062-69.332031 61.804688 0 106.667969 29.164062 106.667969 69.332031v42.667969c0 8.832031-7.167969 16-16 16zm-165.332031-32h149.332031v-26.667969c0-17.960937-28.542969-37.332031-74.667969-37.332031-46.121093 0-74.664062 19.371094-74.664062 37.332031zm0 0"/></svg>