<?xml version="1.0" encoding="iso-8859-1"?>
<!-- Generator: Adobe Illustrator 19.0.0, SVG Export Plug-In . SVG Version: 6.00 Build 0)  -->
<svg version="1.1" id="Capa_1" xmlns="http://www.w3.org/2000/svg" xmlns:xlink="http://www.w3.org/1999/xlink" x="0px" y="0px"
	 viewBox="0 0 480 480" style="enable-background:new 0 0 480 480;" xml:space="preserve">
<g>
	<g>
		<path d="M464,208c8.832,0,16-7.168,16-16v-32c0-5.728-3.072-11.04-8.064-13.888l-224-128c-4.928-2.816-10.944-2.816-15.872,0
			l-224,128C3.072,148.96,0,154.272,0,160v32c0,8.832,7.168,16,16,16h16v160c-17.664,0-32,14.368-32,32v48c0,8.832,7.168,16,16,16
			h448c8.832,0,16-7.168,16-16v-48c0-17.632-14.336-32-32-32V208H464z M448,432H32v-32h416V432z M64,368V208h32v160H64z M128,368
			V208h64v160H128z M224,368V208h32v160H224z M288,368V208h64v160H288z M384,368V208h32v160H384z M32,176v-6.72L240,50.432
			L448,169.28V176H32z"/>
	</g>
</g>
<g>
</g>
<g>
</g>
<g>
</g>
<g>
</g>
<g>
</g>
<g>
</g>
<g>
</g>
<g>
</g>
<g>
</g>
<g>
</g>
<g>
</g>
<g>
</g>
<g>
</g>
<g>
</g>
<g>
</g>
</svg>
