<svg id="Capa_1" enable-background="new 0 0 512 512" height="512" viewBox="0 0 512 512" width="512" xmlns="http://www.w3.org/2000/svg"><g><path d="m158.566 145.662c-1.767.8-4.711 1.199-8.832 1.199-4.793 0-9.798-.736-15.012-2.208-5.216-1.471-9.925-3.426-14.129-5.866l-9.588 21.699c3.785 2.356 8.557 4.333 14.319 5.929 5.759 1.597 11.795 2.564 18.103 2.902v13.372h17.788v-14.003c9.418-1.682 16.671-5.15 21.761-10.408 5.088-5.255 7.633-11.417 7.633-18.482 0-6.391-1.703-11.437-5.109-15.139-3.406-3.7-7.424-6.371-12.048-8.011-4.626-1.64-10.304-3.091-17.031-4.352-5.216-1.009-8.958-1.955-11.228-2.838-2.271-.883-3.406-2.208-3.406-3.974 0-3.7 3.826-5.551 11.48-5.551 7.736 0 15.937 2.188 24.6 6.56l8.957-21.573c-6.982-3.952-15.517-6.39-25.609-7.317v-13.498h-17.788v13.751c-10.01 1.431-17.684 4.794-23.023 10.093-5.342 5.298-8.01 11.649-8.01 19.049 0 6.393 1.681 11.46 5.046 15.202 3.363 3.743 7.317 6.434 11.859 8.074 4.541 1.64 10.219 3.175 17.031 4.605 5.299 1.094 9.103 2.103 11.417 3.028 2.312.926 3.469 2.314 3.469 4.163 0 1.597-.884 2.796-2.65 3.594z" fill="currentColor" /><path d="m467.963 0h-423.926v411.128c0 55.511 45.162 100.872 100.673 100.872h323.253zm-389.803 434.932c5.103 1.718 10.514 2.625 16.081 2.625h25.967l.001 23.443c0 6.141 1.093 12.032 3.094 17.49-20.98-6.683-37.734-22.91-45.143-43.558zm359.815 46.88h-269.455c-10.321-1.348-18.323-10.156-18.323-20.813l-.001-53.431h-55.954c-5.414 0-10.447-2.081-14.173-5.86-3.98-4.038-6.126-9.545-6.042-15.507l-.002-356.213h363.95z" fill="currentColor" /><path d="m324.316 323.466h28.644l-65.645 65.645-95.774-95.775-60.031 60.03 21.205 21.205 38.826-38.825 95.774 95.775 85.394-85.395v25.734h29.989v-78.382h-78.382z" fill="currentColor" /><path d="m263.668 100.996h140.03v29.988h-140.03z" fill="currentColor" /><path d="m263.668 160.973h140.03v29.988h-140.03z" fill="currentColor" /><path d="m109.789 220.949h293.908v29.988h-293.908z" fill="currentColor" /></g></svg>
