<?xml version="1.0" encoding="iso-8859-1"?>
<!-- Generator: Adobe Illustrator 19.0.0, SVG Export Plug-In . SVG Version: 6.00 Build 0)  -->
<svg version="1.1" id="Capa_1" xmlns="http://www.w3.org/2000/svg" xmlns:xlink="http://www.w3.org/1999/xlink" x="0px" y="0px"
	 viewBox="0 0 512 512" style="enable-background:new 0 0 512 512;" xml:space="preserve">
<g>
	<g>
		<path d="M272,144c-26.464,0-48,21.536-48,48s21.536,48,48,48s48-21.536,48-48S298.464,144,272,144z M272,208
			c-8.8,0-16-7.168-16-16c0-8.832,7.2-16,16-16s16,7.168,16,16C288,200.832,280.8,208,272,208z" fill="currentColor" />
	</g>
</g>
<g>
	<g>
		<path d="M368,272c-26.464,0-48,21.536-48,48s21.536,48,48,48s48-21.536,48-48S394.464,272,368,272z M368,336
			c-8.8,0-16-7.168-16-16c0-8.832,7.2-16,16-16s16,7.168,16,16C384,328.832,376.8,336,368,336z" fill="currentColor" />
	</g>
</g>
<g>
	<g>
		<path d="M410.272,147.68c-6.784-5.568-16.864-4.736-22.528,2.048l-160,192c-5.696,6.816-4.768,16.928,2.016,22.56
			c2.976,2.496,6.624,3.712,10.24,3.712c4.576,0,9.12-1.952,12.288-5.76l160-192C417.952,163.456,417.024,153.344,410.272,147.68z"
			 fill="currentColor" />
	</g>
</g>
<g>
	<g>
		<rect x="128" y="144" width="32" height="32" fill="currentColor" />
	</g>
</g>
<g>
	<g>
		<rect x="128" y="336" width="32" height="32" fill="currentColor" />
	</g>
</g>
<g>
	<g>
		<rect x="128" y="272" width="32" height="32" fill="currentColor" />
	</g>
</g>
<g>
	<g>
		<rect x="128" y="208" width="32" height="32" fill="currentColor" />
	</g>
</g>
<g>
	<g>
		<path d="M480,80H32C14.048,80,0,94.048,0,112v80c0,8.832,7.168,16,16,16c26.464,0,48,21.536,48,48s-21.536,48-48,48
			c-8.832,0-16,7.168-16,16v80c0,17.952,14.048,32,32,32h448c17.952,0,32-14.048,32-32V112C512,94.048,497.952,80,480,80z M480,400
			H32v-65.6c36.48-7.424,64-39.744,64-78.4s-27.52-70.944-64-78.4V112h448V400z" fill="currentColor" />
	</g>
</g>
</svg>
