<?xml version="1.0" encoding="iso-8859-1"?>
<!-- Generator: Adobe Illustrator 19.0.0, SVG Export Plug-In . SVG Version: 6.00 Build 0)  -->
<svg version="1.1" id="Capa_1" xmlns="http://www.w3.org/2000/svg" xmlns:xlink="http://www.w3.org/1999/xlink" x="0px" y="0px"
	 viewBox="0 0 512 512" style="enable-background:new 0 0 512 512;" xml:space="preserve">
<g>
	<g>
		<path d="M496,336h-32v-80c0-8.832-7.168-16-16-16H272v-64h32c8.832,0,16-7.168,16-16V64c0-8.832-7.168-16-16-16h-96
			c-8.832,0-16,7.168-16,16v96c0,8.832,7.168,16,16,16h32v64H64c-8.832,0-16,7.168-16,16v80H16c-8.832,0-16,7.168-16,16v96
			c0,8.832,7.168,16,16,16h96c8.832,0,16-7.168,16-16v-96c0-8.832-7.168-16-16-16H80v-64h160v64h-32c-8.832,0-16,7.168-16,16v96
			c0,8.832,7.168,16,16,16h96c8.832,0,16-7.168,16-16v-96c0-8.832-7.168-16-16-16h-32v-64h160v64h-32c-8.832,0-16,7.168-16,16v96
			c0,8.832,7.168,16,16,16h96c8.832,0,16-7.168,16-16v-96C512,343.168,504.832,336,496,336z M96,368v64H32v-64H96z M288,368v64h-64
			v-64H288z M224,144V80h64v64H224z M480,432h-64v-64h64V432z" fill="currentColor" />
	</g>
</g>
</svg>
