<svg id="online-banking-icon" enable-background="new 0 0 510 510" height="512" viewBox="0 0 510 510" width="512" xmlns="http://www.w3.org/2000/svg"><path d="m271.076 0h-226.082c-24.81 0-44.994 20.187-44.994 45v420c0 24.813 20.184 45 44.994 45h226.082c24.81 0 44.994-20.187 44.994-45v-420c-.001-24.813-20.184-45-44.994-45zm14.998 465c0 8.271-6.728 15-14.998 15h-226.082c-8.27 0-14.998-6.729-14.998-15v-420c0-8.271 6.728-15 14.998-15h226.082c8.27 0 14.998 6.729 14.998 15z" fill="currentColor" /><path d="m126.372 103.667h59.992c8.283 0 14.998-6.716 14.998-15s-6.715-15-14.998-15h-59.992c-8.283 0-14.998 6.716-14.998 15s6.715 15 14.998 15z" fill="currentColor" /><path d="m494.988 289.406h-126.451c-8.283 0-14.998 6.716-14.998 15s6.715 15 14.998 15h90.922l-21.634 22.228c-5.779 5.937-5.651 15.433.285 21.211 5.937 5.78 15.433 5.648 21.208-.286l46.416-47.691c9.227-9.478 2.5-25.462-10.746-25.462z" fill="currentColor" /><path d="m368.537 241.784h126.451c8.283 0 14.998-6.716 14.998-15s-6.715-15-14.998-15h-90.921l21.634-22.228c5.779-5.936 5.651-15.433-.285-21.211-5.935-5.778-15.431-5.65-21.208.286l-46.417 47.691c-9.229 9.479-2.496 25.462 10.746 25.462z" fill="currentColor" /><path d="m175.499 243.92h-34.929c-9.025 0-16.368-7.344-16.368-16.371 0-9.057 7.33-16.371 16.365-16.371.079 0 .156 0 .235.001h33.453c7.84.076 15.422 4.367 19.784 11.187l.177.277c4.452 6.988 13.726 9.039 20.708 4.588 6.985-4.452 9.039-13.725 4.587-20.711l-.19-.299c-9.589-14.991-25.862-25.042-46.289-25.042v-15.435c0-8.284-6.715-15-14.998-15s-14.998 6.716-14.998 15v15.435c-30.213 0-48.83 22.05-48.83 46.37 0 25.569 20.799 46.371 46.364 46.371h34.929c9.025 0 16.368 7.344 16.368 16.371 0 9.041-7.311 16.371-16.365 16.371-.078 0-.158-.001-.235-.001h-36.496c-6.749-.063-13.491-3.36-18.042-8.825-5.302-6.366-14.759-7.227-21.123-1.925s-7.226 14.761-1.925 21.126c12.59 15.116 27.807 19.624 45.356 19.624v15.436c0 8.284 6.715 15 14.998 15s14.998-6.716 14.998-15v-15.436c30.214 0 48.83-22.049 48.83-46.37 0-25.569-20.799-46.371-46.364-46.371z" fill="currentColor" /></svg>
