<svg id="Capa_1" enable-background="new 0 0 510 510" height="512" viewBox="0 0 510 510" width="512" xmlns="http://www.w3.org/2000/svg"><path d="m380 0h-250c-24.813 0-45 20.187-45 45v420c0 24.813 20.187 45 45 45h250c24.813 0 45-20.187 45-45v-420c0-24.813-20.187-45-45-45zm15 465c0 8.271-6.729 15-15 15h-250c-8.271 0-15-6.729-15-15v-420c0-8.271 6.729-15 15-15h250c8.271 0 15 6.729 15 15z" fill="currentColor" /><path d="m223.333 103.667h60c8.284 0 15-6.716 15-15s-6.716-15-15-15h-60c-8.284 0-15 6.716-15 15s6.716 15 15 15z" fill="currentColor" /><path d="m353 379.614h-196c-8.284 0-15 6.716-15 15s6.716 15 15 15h196c8.284 0 15-6.716 15-15s-6.716-15-15-15z" fill="currentColor" /><path d="m167.46 264.614h9.713v53.43h-8.84c-8.284 0-15 6.716-15 15s6.716 15 15 15h173.334c8.284 0 15-6.716 15-15s-6.716-15-15-15h-8.84v-53.43h9.713c14.16 0 20.446-17.954 9.305-26.766l-87.54-69.229c-5.453-4.313-13.156-4.313-18.609 0l-87.539 69.229c-11.126 8.799-4.875 26.766 9.303 26.766zm39.713 0h32.827v53.43h-32.827zm95.654 53.43h-32.827v-53.43h32.827zm-47.828-118.535 44.391 35.105h-88.78z" fill="currentColor" /></svg>
